<svg width="65" height="65" viewBox="0 0 65 65" fill="none" xmlns="http://www.w3.org/2000/svg">
<path fill-rule="evenodd" clip-rule="evenodd" d="M4.49515 4.48899C7.42801 3.82813 11.8734 3.09311 16.2004 3.09311C17.5421 3.09311 18.8171 3.14403 20.0156 3.24519C21.2637 1.25794 22.8602 0 25.0293 0C29.575 0 31.8148 5.47354 32.4973 12.4634C33.1802 5.47336 35.4204 6.06849e-05 39.9664 6.06849e-05C42.1359 6.06849e-05 43.7327 1.25818 44.9809 3.24579C46.1796 3.14463 47.4549 3.09372 48.7968 3.09372C53.1246 3.09372 57.5707 3.82886 60.5041 4.48984L60.5098 4.49554C61.1709 7.42875 61.9061 11.8744 61.9061 16.2018C61.9061 17.5436 61.8551 18.8187 61.7539 20.0173C63.7418 21.2655 65 22.8621 65 25.0314C65 29.5834 59.5109 31.8233 52.5062 32.5027C59.5107 33.1818 65 35.4213 65 39.9729C65 42.1419 63.7419 43.7382 61.7545 44.9862C61.8556 46.1846 61.9066 47.4595 61.9066 48.801C61.9066 53.1277 61.1715 57.5726 60.5106 60.5053L60.5048 60.511C57.572 61.1719 53.1266 61.9069 48.7996 61.9069C47.4579 61.9069 46.1829 61.856 44.9844 61.7548C43.7363 63.7421 42.1398 65 39.9707 65C35.425 65 33.1852 59.5265 32.5027 52.5366C31.8198 59.5266 29.5796 65 25.0336 65C22.8641 65 21.2673 63.7418 20.0191 61.7542C18.8204 61.8554 17.5451 61.9063 16.2032 61.9063C11.8754 61.9063 7.42934 61.1711 4.49588 60.5102L4.49017 60.5045C3.82913 57.5713 3.09393 53.1256 3.09393 48.7982C3.09393 47.4564 3.14491 46.1813 3.24608 44.9827C1.25823 43.7345 0 42.1379 0 39.9686C0 35.4166 5.48908 33.1767 12.4938 32.4973C5.48926 31.8182 0 29.5787 0 25.0271C0 22.8581 1.25805 21.2618 3.24548 20.0138C3.14437 18.8154 3.09339 17.5405 3.09339 16.199C3.09339 11.8723 3.82847 7.42735 4.48938 4.49475L4.49515 4.48899ZM31.9524 16.1292C31.9524 21.8984 30.9485 25.8293 28.7533 28.7507C25.8316 30.9457 21.9003 31.9495 16.1306 31.9495C13.3256 31.9495 10.9979 31.6747 9.14494 31.1671C14.3239 26.6819 16.1941 24.5973 17.8073 17.8057C24.5995 16.1927 26.6843 14.3227 31.1699 9.14413C31.6776 10.997 31.9524 13.3244 31.9524 16.1292ZM15.8659 15.8645C15.9764 15.3961 16.0875 14.9251 16.2005 14.4535C17.1185 10.5955 18.0925 6.71746 19.6027 3.95107C18.8903 3.89852 18.1292 3.87091 17.3178 3.87091C13.1784 3.87091 9.52522 4.55823 6.74142 6.74082C4.55863 9.52438 3.87125 13.1772 3.87125 17.3163C3.87125 18.1276 3.89893 18.8885 3.95143 19.601C6.71805 18.0908 10.5965 17.117 14.4547 16.1991C14.9264 16.0861 15.3975 15.9749 15.8659 15.8645ZM18.2807 13.5222C19.2783 9.12629 20.4406 4.00527 22.4791 2.54998C27.1198 -0.762931 30.0789 4.79945 28.281 9.08217C26.483 13.3649 22.8665 15.1419 17.7136 15.9663C17.8998 15.2002 18.0872 14.3749 18.2807 13.5222ZM13.5229 18.2792C9.12677 19.2767 4.00559 20.4388 2.55027 22.4771C-0.762999 27.1174 4.79988 30.0762 9.08297 28.2785C13.3661 26.4807 15.1433 22.8645 15.9677 17.7119C15.2057 17.8973 14.3848 18.0836 13.5367 18.276L13.5229 18.2792ZM33.0476 48.8708C33.0476 43.1016 34.0515 39.1707 36.2467 36.2493C39.1684 34.0543 43.0997 33.0505 48.8694 33.0505C51.6744 33.0505 54.0021 33.3253 55.8551 33.8329C50.676 38.3181 48.8059 40.4027 47.1927 47.1943C40.4005 48.8073 38.3157 50.6773 33.8301 55.8559C33.3224 54.003 33.0476 51.6756 33.0476 48.8708ZM50.5453 48.8009C50.0736 48.9139 49.6025 49.0251 49.1341 49.1355L48.8677 50.2612L48.7995 50.5465C47.8815 54.4045 46.9075 58.2825 45.3973 61.0489C46.1097 61.1015 46.8708 61.129 47.6822 61.129C51.8216 61.129 55.4748 60.4417 58.2586 58.2592C60.4414 55.4756 61.1287 51.8227 61.1287 47.6837C61.1287 46.8724 61.1011 46.1115 61.0486 45.399C58.2819 46.9092 54.4035 47.883 50.5453 48.8009ZM46.7193 51.4778C45.7217 55.8737 44.5594 60.9947 42.5209 62.45C37.8802 65.7629 34.9211 60.2006 36.719 55.9178C38.517 51.6351 42.1335 49.8581 47.2865 49.0337C47.1002 49.7998 46.9128 50.6251 46.7193 51.4778ZM51.4771 46.7208C55.8732 45.7233 60.9944 44.5611 62.4497 42.5229C65.763 37.8826 60.2001 34.9238 55.917 36.7215C51.6339 38.5193 49.8567 42.1355 49.0323 47.288C49.3873 47.2017 49.7551 47.1151 50.1325 47.0279C50.5695 46.9268 51.0195 46.8247 51.4771 46.7208ZM28.7582 36.2443C30.9538 39.1662 31.9579 43.0978 31.9579 48.8679C31.9579 51.6733 31.683 54.0011 31.1753 55.8542C26.6889 50.6748 24.6037 48.8045 17.8103 47.1912C16.1969 40.3984 14.3264 38.3134 9.14652 33.8274C10.9998 33.3197 13.3278 33.0449 16.1334 33.0449C21.9041 33.0449 25.8361 34.0489 28.7582 36.2443ZM16.2033 50.544C16.0903 50.0722 15.9791 49.6011 15.8686 49.1327C15.6221 49.0746 15.3748 49.0162 15.1271 48.9575C14.9041 48.9047 14.6807 48.8516 14.4572 48.7981C10.5983 47.88 6.71921 46.9059 3.95209 45.3955C3.8996 46.1081 3.87192 46.8692 3.87192 47.6807C3.87192 51.8204 4.55942 55.4739 6.74257 58.258C9.52686 60.4409 13.1807 61.1283 17.3208 61.1283C18.1323 61.1283 18.8936 61.1008 19.6061 61.0482C18.0956 58.2813 17.1215 54.4026 16.2033 50.544ZM22.4829 62.4495C20.4441 60.9939 19.2817 55.8721 18.2839 51.4755L18.2815 51.4647L18.2779 51.449C18.0864 50.6055 17.901 49.7891 17.7166 49.0308C22.8705 49.8554 26.4876 51.6327 28.2859 55.9162C30.0841 60.1997 27.1244 65.7631 22.4829 62.4495ZM13.5256 46.7177C14.3783 46.9112 15.2044 47.0986 15.9705 47.2849C15.1459 42.1315 13.3684 38.5147 9.08455 36.7166C4.80067 34.9185 -0.763181 37.8779 2.55069 42.519C4.00631 44.5576 9.12863 45.7199 13.5256 46.7177ZM33.0421 16.1321C33.0421 21.9022 34.0462 25.8338 36.2418 28.7557C39.1639 30.9511 43.0959 31.9551 48.8666 31.9551C51.6722 31.9551 54.0002 31.6803 55.8535 31.1726C50.6736 26.6866 48.8031 24.6016 47.1897 17.8088C40.3963 16.1955 38.3111 14.3252 33.8247 9.14577C33.317 10.9989 33.0421 13.3267 33.0421 16.1321ZM49.1314 15.8673C49.0209 15.3989 48.9097 14.9278 48.7967 14.456C47.8785 10.5974 46.9044 6.71867 45.3939 3.9518C46.1064 3.89925 46.8677 3.87164 47.6792 3.87164C51.8193 3.87164 55.4731 4.55908 58.2574 6.74204C60.4406 9.52608 61.1281 13.1796 61.1281 17.3193C61.1281 18.1308 61.1004 18.8919 61.0479 19.6045C58.2808 18.0941 54.4017 17.12 50.5428 16.2019C50.071 16.089 49.5998 15.9777 49.1314 15.8673ZM46.7161 13.5245C45.7183 9.12793 44.5559 4.00606 42.5171 2.55053C37.8756 -0.763052 34.9159 4.8003 36.7141 9.08381C38.5124 13.3673 42.1295 15.1446 47.2834 15.9692C47.0979 15.2065 46.9115 14.385 46.7188 13.5363L46.7161 13.5245ZM51.4748 18.2824C55.8717 19.2802 60.9937 20.4424 62.4493 22.481C65.7632 27.1221 60.1993 30.0815 55.9154 28.2834C51.6316 26.4853 49.8541 22.8685 49.0295 17.7151C49.7953 17.9013 50.6205 18.0886 51.4729 18.282L51.4748 18.2824ZM32.3987 44.0062C33.3817 34.3809 34.1782 33.5841 43.804 32.6007C34.1787 31.6183 33.3817 30.8212 32.3987 21.1957C31.4157 30.8207 30.6191 31.6177 20.9934 32.6007C30.6187 33.5842 31.4157 34.3807 32.3987 44.0062Z" fill="white"/>
</svg>
