<svg width="1110" height="447" viewBox="0 0 1110 447" fill="none" xmlns="http://www.w3.org/2000/svg">
<path d="M186.256 391.695H0V390.825C14.3608 372.566 17.4071 362.132 17.4071 337.786V127.367C17.4071 103.021 14.3608 92.5868 0 74.3274V73.4579H58.3137V74.3274C43.9529 92.5868 40.9066 102.586 40.9066 127.367V384.304L131.423 381.261C159.71 379.956 179.293 361.262 202.792 319.961L206.274 321.265L186.256 391.695Z" fill="#E8E4DF"/>
<path d="M680.093 398.216C615.687 398.216 561.29 366.479 561.29 288.224V128.671C561.29 103.456 558.244 93.0216 543.883 74.3274V73.4579H602.197V74.3274C590.447 89.9784 584.789 103.456 584.789 128.671V286.92C584.789 361.697 629.613 388.651 684.01 388.651C758.86 388.651 780.184 338.22 780.184 283.007V134.323C780.184 106.934 774.527 95.6301 748.851 74.3274V73.4579H816.304V74.3274C794.545 95.6301 789.323 106.934 789.323 134.323V282.572C789.323 344.742 762.342 398.216 680.093 398.216Z" fill="#E8E4DF"/>
<path d="M829.182 391.695L829.617 390.825C843.978 372.566 846.589 362.132 846.589 337.786V127.367C846.589 103.021 843.543 92.5868 829.182 74.3274V73.4579H887.496V74.3274C873.135 92.5868 870.089 102.586 870.089 127.367V337.786C870.089 362.566 873.57 372.566 887.931 390.825L887.496 391.695H829.182Z" fill="#E8E4DF"/>
<path d="M1079.1 79.9791L1087.8 140.409L1084.32 141.714C1066.48 89.9784 1036.88 75.6316 1001.63 75.6316C952.895 75.6316 933.312 104.325 933.312 133.888C933.312 180.406 975.959 194.753 1019.48 213.447C1064.3 232.576 1109.56 253.879 1109.56 312.135C1109.56 374.739 1057.77 398.216 1000.33 398.216C969.867 398.216 940.275 391.695 916.775 381.695L908.072 319.961L911.553 318.657C931.136 367.783 958.987 389.521 1009.03 389.521C1060.82 389.521 1086.49 362.566 1086.49 320.83C1086.49 268.66 1046.02 251.705 1003.38 233.446C959.422 214.751 915.034 196.492 915.034 141.714C915.034 92.5868 952.46 66.9366 1008.6 66.9366C1035.58 66.9366 1060.82 72.5884 1079.1 79.9791Z" fill="#E8E4DF"/>
<path d="M429.654 385.442C346.258 420.522 255.674 381.301 219.276 294.77C182.877 208.239 217.852 115.26 301.248 80.1804C384.644 45.1006 475.966 84.9539 512.364 171.485C548.763 258.016 513.05 350.362 429.654 385.442ZM426.284 377.43C500.458 346.229 520.784 265.541 485.902 182.616C451.189 100.091 378.793 56.9917 304.618 88.1925C230.444 119.393 211.024 201.114 245.738 283.639C280.451 366.164 352.109 408.63 426.284 377.43Z" fill="#E8E4DF"/>
<path d="M319.893 0.829541V33.8038H338.444V37.7441H315.541V0.829541H319.893Z" fill="#E8E4DF"/>
<path d="M369.033 0.829541V4.76985H347.737V16.539H366.961V20.4793H347.737V33.8038H368.826V37.7441H343.384V0.829541H369.033Z" fill="#E8E4DF"/>
<path d="M406.31 18.561C410.559 20.22 412.684 23.1234 412.684 27.3748C412.684 30.5893 411.595 33.1297 409.523 34.9962C407.45 36.8627 404.497 37.7441 400.714 37.7441H384.599V0.829541H399.937C403.46 0.829541 406.258 1.76277 408.227 3.52555C410.196 5.28832 411.181 7.6214 411.181 10.4729C411.181 14.2059 409.523 16.9019 406.31 18.561ZM399.626 4.76985H388.951V16.9537H399.626C402.009 16.9537 403.823 16.4353 405.066 15.2946C406.31 14.2059 406.932 12.6505 406.932 10.6285C406.932 8.81386 406.258 7.36217 405.015 6.32524C403.771 5.28832 401.957 4.76985 399.626 4.76985ZM388.951 33.8038H400.507C403.046 33.8038 404.963 33.2853 406.31 32.1447C407.657 31.0559 408.331 29.4487 408.331 27.3748C408.331 23.0197 405.688 20.8422 400.455 20.8422H388.951V33.8038Z" fill="#E8E4DF"/>
<path d="M444.957 27.0637L445.32 33.0261C445.475 35.0999 445.942 36.7071 446.667 37.7441H442.159C441.382 36.6553 440.967 34.9962 440.967 32.8187L440.812 28.8784C440.708 26.3897 440.138 24.627 439.154 23.59C438.117 22.5531 436.511 21.9828 434.231 21.9828H422.209V37.7441H417.857V0.829541H433.454C437.236 0.829541 440.242 1.71093 442.522 3.4737C444.802 5.23647 445.942 7.72509 445.942 10.8877C445.942 13.1689 445.372 15.0354 444.283 16.5908C443.195 18.1462 441.744 19.1831 439.879 19.8053C442.988 20.7903 444.646 23.2271 444.957 27.0637ZM422.209 18.0425H433.972C436.252 18.0425 438.065 17.4722 439.413 16.2797C440.76 15.0873 441.434 13.3763 441.434 11.1469C441.434 9.07309 440.708 7.46586 439.309 6.37709C437.91 5.34016 435.941 4.76985 433.454 4.76985H422.209V18.0425Z" fill="#E8E4DF"/>
<path d="M482.477 37.7441H477.866L473.565 27.0119H456.776L452.527 37.7441H447.967L462.683 0.829541H467.554L482.477 37.7441ZM458.486 22.6568L458.331 23.0716H472.01L471.803 22.605C470.922 20.5311 468.694 14.828 465.067 5.54755C462.58 12.132 460.403 17.8351 458.486 22.6568Z" fill="#E8E4DF"/>
<path d="M499.111 38.5736C494.292 38.5736 490.562 37.4848 487.867 35.3073C485.173 33.1297 483.774 29.9153 483.774 25.5602H488.282C488.385 31.6262 491.961 34.6333 499.111 34.6333C502.117 34.6333 504.397 34.063 506.003 32.8705C507.609 31.7299 508.439 30.019 508.439 27.7377C508.439 25.975 507.765 24.627 506.418 23.6419C505.07 22.6568 502.79 21.7754 499.474 21.0496L496.21 20.3237C492.479 19.4942 489.681 18.2499 487.815 16.5908C485.95 14.9317 485.017 12.6505 485.017 9.6434C485.017 6.74001 486.157 4.40693 488.437 2.64416C490.717 0.881387 493.774 0 497.609 0C500.2 0 502.428 0.311077 504.345 0.933233C506.262 1.55539 507.765 2.43677 508.853 3.57739C509.889 4.71801 510.667 5.91047 511.185 7.20663C511.703 8.55463 511.962 10.0063 512.014 11.5617H507.558C507.35 8.9694 506.469 7.05109 504.967 5.80678C503.464 4.56247 501.029 3.94032 497.609 3.94032C495.018 3.94032 492.997 4.45878 491.598 5.44386C490.199 6.48078 489.525 7.88063 489.525 9.6434C489.525 11.458 490.095 12.8579 491.339 13.8429C492.479 14.8799 494.759 15.7613 498.179 16.4871L501.443 17.213C505.485 18.1462 508.439 19.4423 510.252 21.1014C512.014 22.7605 512.947 24.9899 512.947 27.7377C512.947 31.1077 511.703 33.7519 509.268 35.6702C506.78 37.6404 503.412 38.5736 499.111 38.5736Z" fill="#E8E4DF"/>
</svg>
