<svg width="173" height="72" viewBox="0 0 173 72" fill="none" xmlns="http://www.w3.org/2000/svg">
<path fill-rule="evenodd" clip-rule="evenodd" d="M85.0426 0.139765C84.9869 0.247272 84.7254 0.912275 84.4614 1.6174C84.1556 2.43399 83.8835 2.9929 83.7119 3.15654C83.5091 3.34977 83.014 3.53044 81.7166 3.88457C80.7675 4.14366 79.9523 4.39262 79.9047 4.43781C79.8573 4.4831 80.0629 4.59021 80.3615 4.67583C80.6603 4.76155 81.4527 4.97595 82.1227 5.15226C82.8102 5.33333 83.4734 5.57307 83.6453 5.70266C83.889 5.88657 84.0592 6.22834 84.498 7.41487C84.7995 8.23024 85.1021 8.89737 85.1704 8.89737C85.2386 8.89737 85.5378 8.24757 85.8352 7.45348C86.1973 6.48632 86.4666 5.92355 86.6512 5.74917C86.8539 5.55756 87.2708 5.39949 88.2296 5.15074C88.9463 4.96481 89.7553 4.74797 90.0274 4.66883C90.2996 4.5898 90.4823 4.48695 90.4334 4.44034C90.3846 4.39373 89.5682 4.14366 88.6191 3.88457C87.3271 3.53186 86.8262 3.34937 86.6257 3.15826C86.4529 2.99361 86.1866 2.43804 85.8753 1.59339C85.6098 0.873161 85.3367 0.207451 85.2683 0.114029C85.1533 -0.0430267 85.1362 -0.0410004 85.0426 0.139765ZM73.5932 4.3909C73.2568 4.46476 72.6629 4.64472 72.2737 4.79093C71.8845 4.93704 71.2691 5.21904 70.9062 5.41753C70.5433 5.61603 70.018 5.94281 69.7388 6.14374C69.4597 6.34456 68.6505 7.07036 67.9406 7.75644C66.9653 8.69928 66.4942 9.07753 66.012 9.30521C65.5355 9.53025 65.2267 9.60655 64.792 9.60655C64.2922 9.60665 64.1631 9.56481 63.8784 9.31098C63.5938 9.05716 63.5469 8.94844 63.5469 8.54273C63.5469 8.13398 63.5931 8.02891 63.8891 7.76495C64.2075 7.48094 64.2196 7.44821 64.0631 7.29196C63.9481 7.17726 63.7217 7.12417 63.347 7.12417C62.8769 7.12417 62.7534 7.16743 62.4787 7.42814C62.3025 7.59533 62.0893 7.86445 62.0046 8.02617C61.8974 8.23115 61.8625 8.52601 61.8894 8.99991C61.9206 9.55214 61.981 9.74912 62.2108 10.05C62.3664 10.2536 62.7177 10.5336 62.9916 10.6721C63.3764 10.8667 63.6457 10.9239 64.178 10.9238C64.7273 10.9238 64.9926 10.8642 65.4903 10.6291C65.8334 10.4671 66.31 10.1594 66.5495 9.94529C66.8445 9.68153 66.9576 9.62134 66.9005 9.75864C66.8542 9.8701 66.7068 10.3261 66.5731 10.7719C66.4394 11.2177 66.3031 11.9929 66.2703 12.4944C66.226 13.1733 66.2538 13.5732 66.3791 14.0592C66.4715 14.4183 66.662 14.8623 66.8022 15.0458C66.9424 15.2293 67.1403 15.4239 67.2418 15.4782L67.4264 15.5768L67.29 14.9982C67.215 14.6799 67.1528 14.0279 67.152 13.5492C67.151 13.0043 67.2266 12.3813 67.3543 11.8828C67.4665 11.445 67.7382 10.7196 67.9581 10.2707C68.178 9.82187 68.5405 9.17885 68.7639 8.84174C68.9871 8.50463 69.364 8.00864 69.6013 7.73952C69.8386 7.4704 70.303 7.02568 70.6333 6.75129C70.9637 6.4769 71.2489 6.26725 71.2671 6.28539C71.2853 6.30363 71.1658 6.59099 71.0015 6.92405C70.8371 7.257 70.6543 7.79403 70.5952 8.11736C70.5182 8.53928 70.5199 8.85917 70.6014 9.251C70.6639 9.55123 70.816 9.94782 70.9395 10.1323C71.063 10.3169 71.3229 10.5477 71.5172 10.645C71.7257 10.7497 72.0992 10.8222 72.4288 10.8221C72.8097 10.8219 73.0937 10.7569 73.323 10.6173C73.5079 10.5048 73.7248 10.2557 73.8052 10.0636C73.8856 9.87162 73.9514 9.6253 73.9514 9.51637C73.9514 9.32922 73.9342 9.32679 73.6408 9.4729C73.4699 9.55791 73.1615 9.6481 72.9556 9.67312C72.7145 9.70241 72.4569 9.65347 72.2328 9.53593C72.0296 9.42943 71.7976 9.18433 71.6762 8.94803C71.5362 8.67557 71.4703 8.36004 71.4753 7.98544C71.4797 7.65501 71.569 7.2336 71.6948 6.95019C71.8114 6.68725 72.123 6.24151 72.3871 5.95962C72.6762 5.65109 73.1134 5.33039 73.4855 5.15388C73.8255 4.99267 74.3777 4.79164 74.7127 4.70713C75.0476 4.62263 75.4587 4.5365 75.6262 4.51583L75.9308 4.47814L75.645 4.35726C75.4879 4.29079 75.0996 4.24093 74.7822 4.24651C74.4648 4.25218 73.9298 4.31713 73.5932 4.3909ZM94.6588 4.36313L94.405 4.47713L94.7095 4.51532C94.877 4.5363 95.2881 4.62263 95.6231 4.70713C95.958 4.79164 96.5102 4.99267 96.8502 5.15388C97.2223 5.33039 97.6595 5.65109 97.9486 5.95962C98.2127 6.24151 98.5244 6.68725 98.6412 6.95019C98.7743 7.24981 98.8536 7.64052 98.8539 7.99739C98.8542 8.36622 98.7835 8.70506 98.6529 8.95999C98.5372 9.18565 98.3029 9.43116 98.103 9.53593C97.8789 9.65347 97.6212 9.70241 97.3802 9.67312C97.1742 9.6481 96.8658 9.55791 96.695 9.4729C96.4015 9.32679 96.3844 9.32922 96.3844 9.51637C96.3844 9.6253 96.4502 9.87162 96.5305 10.0636C96.6109 10.2557 96.8279 10.5048 97.0127 10.6173C97.2374 10.7541 97.5263 10.822 97.8848 10.8222C98.1797 10.8224 98.5718 10.7597 98.756 10.6828C98.9402 10.606 99.1908 10.4164 99.3128 10.2616C99.4349 10.1067 99.6079 9.72875 99.6974 9.42163C99.8314 8.96121 99.8406 8.7467 99.7497 8.19903C99.689 7.83375 99.5036 7.26126 99.3375 6.92668C99.1713 6.5922 99.0505 6.30363 99.0686 6.28539C99.0869 6.26725 99.372 6.4769 99.7024 6.75129C100.033 7.02568 100.495 7.46817 100.73 7.73445C100.965 8.00084 101.37 8.54121 101.63 8.93527C101.89 9.32932 102.258 9.98591 102.447 10.3944C102.636 10.8028 102.879 11.4839 102.988 11.9079C103.109 12.3824 103.185 13.0136 103.184 13.5492C103.183 14.0279 103.121 14.6799 103.046 14.9982C102.921 15.5255 102.924 15.569 103.074 15.4889C103.164 15.4406 103.316 15.3154 103.411 15.2106C103.506 15.1059 103.688 14.7938 103.816 14.5172C104.02 14.0757 104.047 13.8658 104.037 12.7984C104.028 11.8089 103.978 11.4316 103.772 10.7719C103.633 10.3261 103.482 9.8701 103.435 9.75864C103.378 9.62134 103.491 9.68153 103.786 9.94529C104.026 10.1594 104.502 10.4671 104.845 10.6291C105.338 10.8616 105.608 10.9233 106.129 10.9216C106.572 10.9201 106.939 10.8516 107.244 10.7134C107.494 10.6002 107.784 10.4301 107.889 10.3357C107.994 10.2413 108.166 9.99473 108.271 9.78803C108.393 9.55032 108.464 9.20145 108.464 8.83921C108.464 8.44647 108.398 8.1505 108.254 7.89789C108.138 7.69524 107.921 7.43828 107.772 7.32682C107.581 7.18486 107.341 7.12417 106.97 7.12417C106.613 7.12417 106.386 7.17868 106.273 7.29196C106.116 7.44821 106.128 7.48094 106.447 7.76495C106.743 8.02891 106.789 8.13398 106.789 8.54273C106.789 8.94844 106.742 9.05716 106.457 9.31098C106.173 9.56481 106.044 9.60665 105.544 9.60655C105.11 9.60655 104.8 9.53025 104.328 9.30733C103.848 9.08067 103.369 8.6936 102.349 7.70922C101.609 6.99477 100.674 6.19288 100.273 5.9273C99.8713 5.66183 99.1916 5.28257 98.7624 5.08457C98.3331 4.88658 97.548 4.61473 97.0179 4.48047C96.4876 4.34621 95.7971 4.23931 95.4832 4.24276C95.1693 4.2463 94.7983 4.30051 94.6588 4.36313ZM77.7516 5.32563C77.6568 5.75748 77.5402 6.18619 77.4926 6.2783C77.445 6.3703 76.9704 6.61784 76.4378 6.82829C75.9052 7.03865 75.5047 7.24302 75.5479 7.28223C75.5909 7.32155 76.0145 7.40798 76.489 7.47435C76.9636 7.54072 77.4546 7.66109 77.5801 7.74185C77.7056 7.82251 77.9672 8.20339 78.1613 8.58812C78.3553 8.97286 78.5531 9.31159 78.6007 9.34097C78.6484 9.37036 78.7684 9.04318 78.8675 8.61396C78.9666 8.18464 79.1099 7.73486 79.186 7.61448C79.2702 7.48093 79.6636 7.26754 80.1935 7.06783C80.6717 6.88777 81.0841 6.7063 81.1097 6.66475C81.1355 6.62311 81.0085 6.56292 80.8275 6.5309C80.6467 6.49878 80.2473 6.44204 79.9403 6.40465C79.6332 6.36726 79.2678 6.2783 79.1282 6.20696C78.9778 6.13016 78.709 5.76457 78.4684 5.30972C78.2451 4.88749 78.0312 4.54167 77.9932 4.54116C77.9551 4.54076 77.8464 4.89378 77.7516 5.32563ZM92.2019 4.76226C92.1175 4.89104 91.9314 5.22714 91.7881 5.50933C91.645 5.79142 91.4596 6.07889 91.3761 6.14799C91.2927 6.21709 90.7609 6.34588 90.1945 6.43414C89.628 6.52229 89.2017 6.62686 89.247 6.66648C89.2925 6.7061 89.7027 6.88585 90.1586 7.0659C90.6145 7.24606 91.0567 7.46979 91.1413 7.56311C91.226 7.65643 91.3718 8.07471 91.4653 8.49247C91.5587 8.91024 91.6653 9.28464 91.7022 9.32456C91.7389 9.36438 91.9656 9.03375 92.2058 8.58974C92.4461 8.14573 92.7247 7.7385 92.8251 7.6849C92.9255 7.6313 93.4248 7.532 93.9347 7.46421C94.4446 7.39643 94.8618 7.30696 94.8618 7.26531C94.8618 7.22367 94.485 7.04706 94.0243 6.87278C93.5637 6.6986 93.0902 6.44893 92.9719 6.31802C92.8465 6.1792 92.7056 5.80896 92.634 5.42979C92.5664 5.07221 92.4761 4.72314 92.4332 4.65394C92.3771 4.56325 92.3126 4.59345 92.2019 4.76226ZM82.7317 10.2834C82.4526 10.3011 81.539 10.3866 80.7016 10.4731C79.8641 10.5597 78.4024 10.7637 77.4534 10.9264C76.5043 11.0893 75.1701 11.3593 74.4884 11.5266C73.8069 11.6939 72.9727 11.9429 72.6348 12.08C72.2969 12.2171 71.7582 12.4887 71.4379 12.6836C71.1175 12.8785 70.6076 13.2804 70.3047 13.5768C70.0019 13.8732 69.5549 14.4227 69.3113 14.7978C69.0678 15.173 68.7267 15.8114 68.5533 16.2164C68.3801 16.6215 67.899 17.9331 67.4844 19.1313C67.0698 20.3295 66.5929 21.8342 66.4245 22.4751C66.2014 23.3248 66.1034 23.9703 66.0624 24.8589C66.0203 25.772 66.048 26.2833 66.1728 26.898C66.2645 27.3493 66.473 28.0419 66.6362 28.437C66.7994 28.8321 67.1479 29.4876 67.4106 29.8936C67.6733 30.2997 68.259 31.0131 68.712 31.4791C69.1651 31.9451 69.9012 32.6117 70.3479 32.9607C70.7945 33.3095 71.6852 33.9373 72.3273 34.3555C72.9693 34.7739 74.0427 35.4126 74.7127 35.7748C75.3826 36.137 77.0036 36.9689 78.3147 37.6234C79.626 38.2779 81.5596 39.2182 82.6116 39.7129C83.6636 40.2078 84.6939 40.6397 84.9012 40.6728C85.1084 40.7058 85.479 40.6789 85.7248 40.6128C85.9706 40.5468 87.58 39.8165 89.3012 38.9902C91.0224 38.1638 93.2175 37.0697 94.1791 36.5589C95.1408 36.048 96.4986 35.2905 97.1964 34.8754C97.8943 34.4604 98.8764 33.8274 99.3788 33.4688C99.8813 33.1101 100.665 32.4739 101.121 32.055C101.576 31.636 102.183 30.9848 102.469 30.6079C102.755 30.231 103.194 29.5121 103.444 29.0106C103.693 28.509 103.989 27.738 104.1 27.2972C104.245 26.7234 104.302 26.1621 104.3 25.3213C104.299 24.5394 104.231 23.8252 104.095 23.1843C103.983 22.6549 103.478 20.982 102.972 19.4669C102.416 17.8004 101.831 16.2618 101.491 15.5726C101.008 14.5916 100.814 14.3178 100.098 13.6028C99.4367 12.943 99.0899 12.6878 98.4088 12.3594C97.9374 12.1322 97.0949 11.8327 96.5366 11.694C95.9783 11.5553 94.9256 11.3271 94.1972 11.1869C93.4688 11.0468 92.0756 10.8184 91.1012 10.6793C90.1269 10.5402 88.7153 10.3788 87.9644 10.3205C87.2135 10.2622 85.8432 10.2228 84.9192 10.2328C83.9953 10.2429 83.0108 10.2657 82.7317 10.2834ZM59.7592 12.2496C59.4624 12.3008 58.9689 12.4653 58.6624 12.615C58.3561 12.7648 57.9434 13.0661 57.7457 13.2847C57.5479 13.5032 57.3146 13.8481 57.2273 14.0508C57.14 14.2537 57.0646 14.716 57.0595 15.0783C57.0523 15.6079 57.1067 15.8511 57.3375 16.3203C57.4954 16.6412 57.7695 17.014 57.9466 17.1486C58.1236 17.2833 58.4785 17.4461 58.7351 17.5106C59.079 17.5968 59.3105 17.5983 59.6159 17.5163C59.8621 17.4501 60.1384 17.2764 60.2971 17.0883L60.564 16.7715L59.9238 16.4568C59.3649 16.1821 59.2599 16.0838 59.0962 15.6826C58.9348 15.2868 58.9256 15.1607 59.0299 14.7744C59.1031 14.5027 59.2977 14.1791 59.523 13.9542C59.802 13.6756 60.0346 13.5538 60.4528 13.4672C60.8462 13.3856 61.1698 13.3818 61.5512 13.4539C61.8486 13.5102 62.2903 13.6439 62.5327 13.751C62.7752 13.858 63.18 14.1355 63.4323 14.3677C63.6846 14.5999 64.0349 15.0135 64.2107 15.287C64.3865 15.5605 64.6395 16.1067 64.7731 16.5008C64.9067 16.8948 65.0668 17.6343 65.1289 18.144C65.2139 18.8417 65.2117 19.3088 65.1202 20.0349C65.0533 20.5653 64.9065 21.297 64.794 21.6611C64.6815 22.0252 64.453 22.5966 64.2863 22.931C64.1195 23.2654 63.8164 23.7139 63.6127 23.9276C63.4091 24.1413 63.0597 24.4106 62.8364 24.5262C62.5806 24.6585 62.1608 24.7539 61.7022 24.7838C61.1042 24.8227 60.8954 24.7931 60.5327 24.6179C60.2899 24.5006 60.0123 24.2712 59.9158 24.1081C59.8194 23.9451 59.7404 23.6705 59.7404 23.498C59.7404 23.3255 59.6912 23.1843 59.6311 23.1843C59.571 23.1843 59.3883 23.3176 59.2251 23.4805C58.9848 23.7204 58.9284 23.8637 58.9284 24.2339C58.9284 24.4853 58.9771 24.8194 59.0367 24.9763C59.0961 25.1331 59.2446 25.3685 59.3666 25.4993C59.4884 25.6301 59.7709 25.8346 59.9942 25.9536C60.3107 26.1222 60.5798 26.1703 61.2144 26.1717C61.9275 26.1732 62.1103 26.1332 62.6862 25.8494C63.0479 25.6712 63.5582 25.3064 63.82 25.0388C64.0819 24.7712 64.4568 24.2844 64.6532 23.9572C64.8497 23.6299 65.1255 23.0143 65.2662 22.5893C65.407 22.1642 65.5983 21.4745 65.6914 21.0565C65.8041 20.5499 65.8625 19.8067 65.8665 18.8273C65.871 17.7263 65.8268 17.1804 65.6897 16.6488C65.5891 16.2587 65.3511 15.6204 65.1608 15.2302C64.9705 14.8401 64.6225 14.297 64.3875 14.0235C64.1524 13.7498 63.6915 13.3286 63.3632 13.0873C63.0348 12.846 62.4851 12.5623 62.1416 12.457C61.798 12.3515 61.2427 12.2408 60.9077 12.2109C60.5728 12.181 60.0559 12.1985 59.7592 12.2496ZM109.006 12.2466C108.719 12.2969 108.239 12.4296 107.941 12.5417C107.642 12.6536 107.137 12.9506 106.817 13.2015C106.498 13.4525 106.054 13.8891 105.83 14.1718C105.606 14.4545 105.29 14.9679 105.127 15.3127C104.965 15.6574 104.749 16.2587 104.647 16.6488C104.509 17.1833 104.465 17.7202 104.469 18.8273C104.473 19.8067 104.532 20.5499 104.644 21.0565C104.737 21.4745 104.929 22.1642 105.07 22.5893C105.21 23.0143 105.486 23.6299 105.683 23.9572C105.879 24.2844 106.254 24.7712 106.516 25.0388C106.778 25.3064 107.288 25.6712 107.65 25.8494C108.225 26.1332 108.408 26.1732 109.121 26.1717C109.756 26.1703 110.025 26.1222 110.342 25.9536C110.565 25.8346 110.847 25.6301 110.969 25.4993C111.091 25.3685 111.24 25.1331 111.299 24.9763C111.359 24.8194 111.407 24.4853 111.407 24.2339C111.407 23.8637 111.351 23.7204 111.111 23.4805C110.947 23.3176 110.765 23.1843 110.705 23.1843C110.645 23.1843 110.595 23.3255 110.595 23.498C110.595 23.6705 110.516 23.9451 110.42 24.1081C110.323 24.2712 110.046 24.5006 109.803 24.6179C109.44 24.7931 109.232 24.8227 108.634 24.7838C108.175 24.7539 107.755 24.6585 107.499 24.5262C107.276 24.4106 106.929 24.1413 106.728 23.9276C106.528 23.7139 106.268 23.3781 106.15 23.1814C106.033 22.9847 105.801 22.4148 105.635 21.9148C105.469 21.4149 105.279 20.5704 105.213 20.0383C105.124 19.3142 105.122 18.8373 105.207 18.144C105.269 17.6343 105.429 16.8948 105.563 16.5008C105.696 16.1067 105.949 15.5605 106.125 15.287C106.301 15.0135 106.651 14.5999 106.903 14.3677C107.156 14.1355 107.561 13.858 107.803 13.751C108.045 13.6439 108.487 13.5102 108.785 13.4539C109.16 13.3829 109.489 13.3854 109.86 13.4624C110.154 13.5233 110.533 13.6893 110.702 13.8311C110.87 13.973 111.069 14.2091 111.143 14.3557C111.217 14.5023 111.306 14.7756 111.342 14.9629C111.386 15.1948 111.346 15.4411 111.216 15.7343C111.057 16.0918 110.919 16.218 110.404 16.475L109.783 16.7848L110.044 17.0948C110.198 17.2768 110.477 17.4509 110.72 17.5163C111.024 17.598 111.256 17.5969 111.593 17.5121C111.846 17.4487 112.181 17.3052 112.339 17.1934C112.496 17.0817 112.738 16.798 112.875 16.563C113.014 16.3279 113.179 15.9082 113.243 15.6303C113.332 15.2452 113.331 14.9861 113.239 14.5421C113.164 14.1809 112.994 13.7977 112.793 13.5338C112.614 13.2997 112.286 12.9846 112.064 12.8336C111.843 12.6825 111.433 12.4896 111.154 12.4048C110.874 12.32 110.395 12.2291 110.088 12.2028C109.781 12.1766 109.294 12.1962 109.006 12.2466ZM77.4026 16.8092C77.4026 19.174 77.3657 20.655 77.3072 20.6343C77.2547 20.6157 76.6603 20.1298 75.9863 19.5544C75.2169 18.8976 74.7879 18.464 74.8336 18.3892C74.8736 18.3236 75.1107 18.0192 75.3604 17.7127C75.6102 17.4062 76.0143 16.7349 76.2584 16.2209C76.5025 15.707 76.8143 14.8462 76.951 14.3081C77.0877 13.77 77.1996 13.2444 77.1996 13.1401C77.1996 13.0357 77.2453 12.9504 77.3011 12.9504C77.367 12.9504 77.4026 14.3042 77.4026 16.8092ZM82.1503 18.7266L82.1227 20.6524L79.5581 18.5095L80.0036 17.7695C80.2486 17.3624 80.739 16.3511 81.0932 15.522C81.4474 14.6927 81.7932 13.8319 81.8616 13.609C81.9299 13.3861 82.0166 13.1353 82.0543 13.0517C82.0919 12.9681 82.135 13.7775 82.1503 14.8503C82.1654 15.923 82.1654 17.6674 82.1503 18.7266ZM87.0457 16.8008C87.0457 18.9185 87.016 20.6512 86.9797 20.6512C86.9433 20.6512 86.361 20.1871 85.6855 19.62C85.01 19.0528 84.4364 18.5722 84.4109 18.5519C84.3855 18.5317 84.4439 18.3916 84.541 18.2406C84.6379 18.0896 84.9386 17.5329 85.2091 17.0035C85.4795 16.474 85.9577 15.3989 86.2718 14.6142C86.5858 13.8295 86.8427 13.1342 86.8427 13.069C86.8427 13.0038 86.8884 12.9504 86.9442 12.9504C87.0101 12.9504 87.0457 14.3014 87.0457 16.8008ZM91.8166 16.8008C91.8166 18.9185 91.7931 20.6512 91.7645 20.6512C91.7359 20.6512 91.1421 20.1693 90.4449 19.5802C89.7478 18.9912 89.1774 18.4919 89.1774 18.4706C89.1774 18.4495 89.3173 18.2252 89.4882 17.9724C89.6592 17.7195 89.9961 17.0903 90.2369 16.574C90.4776 16.0579 90.8859 15.1067 91.1441 14.4605C91.4023 13.8141 91.6136 13.21 91.6136 13.1179C91.6136 13.0258 91.6592 12.9504 91.7151 12.9504C91.7809 12.9504 91.8166 14.3014 91.8166 16.8008ZM97.037 21.2591C99.3501 23.2375 101.246 24.8881 101.25 24.9271C101.254 24.9662 100.75 25.1617 100.13 25.3617C99.51 25.5618 98.3567 25.8839 97.5667 26.0777C96.7769 26.2714 95.6053 26.5162 94.9633 26.6215C94.3213 26.7269 93.6132 26.8389 93.3899 26.8704L92.9839 26.9277L92.9834 25.4867C92.983 24.1304 92.9643 23.9935 92.6663 23.1609C92.4921 22.6743 92.4009 22.3075 92.4638 22.3457C92.5265 22.384 93.3403 23.067 94.2722 23.8637C95.2041 24.6604 96.0108 25.3122 96.065 25.3122C96.1192 25.3122 96.1928 25.1388 96.2288 24.9269C96.2658 24.7077 96.228 24.2258 96.1409 23.8086C96.0566 23.4053 95.7785 22.6346 95.5228 22.0957C95.267 21.5568 94.7659 20.6808 94.409 20.1489C94.0522 19.6171 93.4485 18.8014 93.0675 18.3362C92.6866 17.8711 92.3063 17.3923 92.2226 17.2723C92.1076 17.1074 92.1633 17.1284 92.4508 17.3581C92.66 17.5253 94.7238 19.2808 97.037 21.2591ZM82.1734 27.4493L81.7928 27.38C81.5835 27.342 80.6446 27.1628 79.7065 26.9817C78.7685 26.8007 77.9807 26.6324 77.9559 26.6076C77.9311 26.5829 78.1347 25.8823 78.4081 25.0509C78.6817 24.2193 78.9566 23.2044 79.0191 22.7954C79.0816 22.3865 79.1615 21.4219 79.1966 20.6518L79.2605 19.2517L82.1593 21.7151L82.1734 27.4493ZM85.815 20.7542L87.0457 21.8036V24.5652C87.0457 26.084 87.007 27.3507 86.9596 27.3798C86.9123 27.4091 85.9499 27.2567 84.8211 27.0413C83.6924 26.8258 82.7541 26.6336 82.7362 26.6141C82.7183 26.5947 82.9068 25.9732 83.155 25.233C83.4033 24.493 83.6733 23.581 83.755 23.2065C83.8367 22.8321 83.9323 21.7865 83.9675 20.8831L84.0314 19.2405L84.3078 19.4728C84.4599 19.6004 85.1381 20.1771 85.815 20.7542ZM59.0299 19.4718C58.7786 19.54 58.3517 19.7068 58.0812 19.8424C57.8107 19.978 57.3121 20.3847 56.9733 20.7461C56.5561 21.1913 56.2298 21.6751 55.9623 22.2448C55.7451 22.7076 55.5022 23.3933 55.4225 23.7686C55.3428 24.1439 55.2769 25.0055 55.2758 25.6832C55.2749 26.361 55.339 27.2542 55.4184 27.668C55.4976 28.0818 55.683 28.7812 55.8303 29.2222C55.9775 29.663 56.2846 30.343 56.5129 30.7331C56.7412 31.1232 57.1695 31.7441 57.4648 32.1129C57.7601 32.4816 58.2886 32.9986 58.6392 33.2616C58.9898 33.5248 59.7349 33.962 60.2951 34.2333C60.8554 34.5048 61.6606 34.8386 62.0846 34.975C62.5086 35.1116 63.3308 35.3217 63.9117 35.4418C64.4927 35.562 65.6075 35.7041 66.3891 35.7576C67.1707 35.811 68.3233 35.8968 68.9505 35.9483C69.6845 36.0085 70.2511 36.1126 70.5407 36.2405C70.7881 36.3497 71.067 36.5556 71.1605 36.698C71.254 36.8404 71.3554 37.1426 71.3859 37.3696C71.4239 37.6521 71.3827 37.9122 71.2554 38.1939C71.1531 38.4203 70.9146 38.7106 70.7252 38.839L70.381 39.0726L70.7037 39.1433C70.8812 39.1822 71.2244 39.1844 71.4664 39.1481C71.7084 39.112 72.057 38.981 72.2413 38.857C72.4255 38.7331 72.6748 38.4857 72.7952 38.3072C72.9157 38.1288 73.0444 37.8228 73.0811 37.6272C73.1179 37.4317 73.0991 37.0906 73.0394 36.8694C72.9797 36.6482 72.8121 36.3261 72.6666 36.1537C72.5212 35.9812 72.1884 35.7319 71.927 35.5997C71.6655 35.4675 71.1656 35.3075 70.816 35.2442C70.3826 35.1657 69.4768 35.1517 67.9699 35.2003C66.5161 35.2472 65.7378 35.2366 65.6962 35.1693C65.6583 35.1081 65.8453 35.0422 66.1633 35.005C66.455 34.9708 66.9439 34.8153 67.25 34.6596C67.6446 34.4586 67.8727 34.2592 68.0349 33.9732C68.1778 33.7215 68.2642 33.398 68.2654 33.1116C68.2663 32.8489 68.1962 32.5519 68.1014 32.4169C68.0104 32.2871 67.7835 32.1173 67.5971 32.0396C67.4109 31.9619 67.2101 31.8984 67.151 31.8984C67.0879 31.8984 67.1121 32.0304 67.2097 32.2189C67.3165 32.4251 67.3573 32.6763 67.3241 32.9234C67.2958 33.1347 67.1749 33.4443 67.0555 33.6116C66.9358 33.7794 66.5438 34.0607 66.1811 34.2389C65.7232 34.464 65.2659 34.5938 64.6745 34.667C63.9758 34.7534 63.6713 34.7418 62.9562 34.6015C62.4783 34.5078 61.9588 34.3774 61.8019 34.3119L61.5168 34.1926L62.135 34.1263C62.4749 34.0899 62.9631 33.9585 63.2197 33.8345C63.4763 33.7106 63.8542 33.4235 64.0594 33.1968C64.2647 32.97 64.5214 32.5841 64.6298 32.3393C64.7383 32.0945 64.8697 31.6334 64.9216 31.3144C64.9841 30.9314 64.9789 30.521 64.9064 30.1053C64.8428 29.741 64.6729 29.2814 64.503 29.0139C64.3415 28.7598 63.9952 28.4163 63.7334 28.2505C63.4715 28.0848 63.1052 27.9206 62.9193 27.8859C62.7333 27.851 62.3794 27.8527 62.1326 27.8897C61.8859 27.9266 61.5321 28.0575 61.3466 28.1805C61.161 28.3036 60.9034 28.6091 60.7739 28.8594C60.5876 29.2196 60.5498 29.4176 60.593 29.8086C60.6229 30.0805 60.7237 30.419 60.817 30.5611L60.9865 30.8194L61.177 30.4488C61.2818 30.2449 61.5016 30.0089 61.6655 29.9243C61.8294 29.8397 62.13 29.7705 62.3335 29.7705C62.54 29.7705 62.8287 29.8595 62.9868 29.9719C63.1426 30.0826 63.3475 30.3663 63.4421 30.6022C63.5647 30.9083 63.5943 31.1621 63.5454 31.4878C63.5077 31.7389 63.3918 32.1107 63.288 32.3139C63.184 32.5172 62.9618 32.7988 62.794 32.9396C62.6264 33.0805 62.2814 33.275 62.0277 33.3718C61.6976 33.4976 61.3985 33.5325 60.9769 33.4943C60.6312 33.4629 60.1659 33.3288 59.8518 33.1699C59.5572 33.0209 59.1096 32.7091 58.8575 32.4769C58.6053 32.2449 58.2641 31.8595 58.0993 31.6205C57.9347 31.3816 57.6684 30.9213 57.5075 30.5977C57.3466 30.274 57.1161 29.6477 56.9952 29.2059C56.8419 28.6459 56.7594 27.9846 56.7226 27.022C56.69 26.1665 56.7158 25.3783 56.7905 24.9501C56.8569 24.57 57.0518 23.8947 57.2239 23.4496C57.4686 22.8159 57.66 22.5143 58.1055 22.0598C58.5213 21.6358 58.7952 21.4475 59.1221 21.361C59.3683 21.2959 59.7292 21.2725 59.9241 21.309C60.119 21.3455 60.4125 21.5092 60.5763 21.6728C60.8543 21.9502 60.872 22.014 60.8402 22.6283L60.8062 23.2865L61.1318 23.3472C61.3479 23.3875 61.5861 23.3448 61.8409 23.2201C62.0519 23.1169 62.328 22.8774 62.4544 22.688C62.628 22.4278 62.6841 22.1979 62.6841 21.7467C62.6841 21.3532 62.6161 21.0167 62.4845 20.7594C62.3748 20.5447 62.0914 20.2034 61.8546 20.0012C61.6179 19.7988 61.1969 19.566 60.9191 19.4836C60.6414 19.4013 60.2054 19.337 59.9503 19.3407C59.6953 19.3446 59.2811 19.4035 59.0299 19.4718ZM75.9744 20.5581L77.4026 21.7821V24.6111C77.4026 26.167 77.3765 27.44 77.3446 27.44C77.3128 27.44 75.9996 27.2064 74.4263 26.9207C72.8532 26.6351 71.5496 26.3869 71.5295 26.3693C71.5095 26.3516 71.8301 25.8899 72.2418 25.3434C72.6536 24.7968 73.1573 24.0076 73.361 23.5896C73.5647 23.1717 73.8076 22.6017 73.9008 22.3231C73.9939 22.0444 74.1348 21.4819 74.2138 21.0729C74.2927 20.664 74.3574 20.1054 74.3574 19.8317C74.3574 19.5579 74.3999 19.334 74.4518 19.334C74.5038 19.334 75.1889 19.8848 75.9744 20.5581ZM90.3884 20.5581L91.8166 21.7821V24.6111C91.8166 26.167 91.7824 27.4395 91.7404 27.439C91.6985 27.4384 90.7609 27.2623 89.6567 27.0478C88.5526 26.8332 87.6206 26.6291 87.5857 26.5943C87.5507 26.5594 87.7113 25.9717 87.9426 25.2883C88.1737 24.6048 88.4349 23.7492 88.5229 23.387C88.6169 23.0004 88.707 22.0273 88.7412 21.0312C88.7732 20.0977 88.8356 19.334 88.8799 19.334C88.924 19.334 89.6029 19.8848 90.3884 20.5581ZM109.374 19.483C109.121 19.5645 108.72 19.7971 108.482 20.0001C108.245 20.2029 107.961 20.5447 107.851 20.7594C107.72 21.0167 107.652 21.3532 107.652 21.7467C107.652 22.1979 107.708 22.4278 107.881 22.688C108.008 22.8774 108.284 23.1169 108.495 23.2201C108.75 23.3448 108.988 23.3875 109.204 23.3472L109.53 23.2865L109.496 22.6283C109.464 22.014 109.481 21.9502 109.759 21.6728C109.923 21.5092 110.217 21.3455 110.412 21.309C110.606 21.2725 110.967 21.2959 111.214 21.361C111.541 21.4475 111.814 21.6358 112.23 22.0598C112.677 22.5154 112.865 22.8132 113.107 23.4442C113.276 23.8864 113.472 24.5725 113.541 24.9687C113.623 25.4319 113.649 26.1736 113.614 27.0459C113.577 27.9759 113.491 28.6552 113.34 29.2059C113.219 29.6477 112.989 30.274 112.828 30.5977C112.667 30.9213 112.401 31.3816 112.236 31.6205C112.072 31.8595 111.723 32.2518 111.461 32.4923C111.2 32.733 110.727 33.0483 110.41 33.1931C110.093 33.3379 109.593 33.4763 109.298 33.5007C108.942 33.5303 108.61 33.4869 108.305 33.3704C108.053 33.2744 107.709 33.0805 107.542 32.9396C107.374 32.7988 107.149 32.511 107.041 32.3002C106.933 32.0895 106.815 31.7298 106.778 31.5009C106.732 31.2144 106.766 30.9434 106.885 30.6314C106.98 30.382 107.175 30.0864 107.318 29.9743C107.478 29.849 107.73 29.7705 107.975 29.7705C108.193 29.7705 108.506 29.8397 108.67 29.9243C108.834 30.0089 109.054 30.2449 109.159 30.4488L109.349 30.8194L109.51 30.5736C109.599 30.4385 109.703 30.1334 109.741 29.8957C109.789 29.5922 109.758 29.329 109.637 29.012C109.542 28.7635 109.329 28.4468 109.164 28.3081C108.999 28.1693 108.693 28.0087 108.486 27.9511C108.278 27.8936 107.946 27.8462 107.748 27.8459C107.549 27.8456 107.148 27.9642 106.856 28.1096C106.529 28.2721 106.189 28.5507 105.973 28.8335C105.78 29.0863 105.568 29.4803 105.503 29.7091C105.438 29.9379 105.388 30.4443 105.392 30.8344C105.396 31.2971 105.474 31.7426 105.615 32.1159C105.734 32.4306 106.013 32.8942 106.235 33.146C106.457 33.3979 106.851 33.7065 107.111 33.832C107.37 33.9574 107.861 34.0899 108.201 34.1263C108.781 34.1885 108.802 34.1997 108.543 34.3083C108.391 34.3719 107.891 34.5 107.432 34.5929C106.863 34.7079 106.368 34.7425 105.881 34.701C105.487 34.6675 104.936 34.5634 104.657 34.4694C104.378 34.3755 103.962 34.171 103.732 34.0151C103.502 33.859 103.24 33.5742 103.148 33.3822C103.057 33.1902 102.982 32.9122 102.982 32.7646C102.982 32.6171 103.052 32.3617 103.137 32.1973C103.231 32.017 103.249 31.8984 103.185 31.8984C103.126 31.8984 102.925 31.9619 102.739 32.0396C102.552 32.1173 102.325 32.2871 102.234 32.4169C102.14 32.5519 102.069 32.8489 102.07 33.1116C102.072 33.398 102.158 33.7215 102.301 33.9732C102.463 34.2592 102.691 34.4586 103.086 34.6596C103.392 34.8153 103.881 34.9708 104.172 35.005C104.464 35.0392 104.677 35.1085 104.646 35.1589C104.614 35.2112 103.489 35.2381 102.035 35.2212C99.729 35.1944 99.4217 35.2106 98.8777 35.3886C98.4832 35.5176 98.1273 35.7276 97.8472 35.9966C97.5688 36.2639 97.3788 36.5584 97.3035 36.8395C97.2399 37.0771 97.2178 37.4317 97.2546 37.6272C97.2913 37.8228 97.4201 38.1288 97.5405 38.3072C97.6609 38.4857 97.9102 38.7331 98.0945 38.857C98.2787 38.981 98.6274 39.112 98.8694 39.1481C99.1114 39.1844 99.457 39.1817 99.6375 39.1422L99.9655 39.0702L99.6423 38.866C99.4646 38.7536 99.2298 38.4869 99.1206 38.2732C99.0114 38.0595 98.9221 37.7446 98.9221 37.5734C98.9221 37.4022 98.9878 37.105 99.0682 36.913C99.1486 36.7209 99.3632 36.4734 99.5451 36.363C99.727 36.2526 100.107 36.1128 100.389 36.0524C100.671 35.992 101.744 35.8987 102.775 35.8451C103.805 35.7915 105.061 35.6812 105.566 35.6C106.071 35.5189 106.927 35.3376 107.468 35.1971C108.009 35.0568 108.866 34.7637 109.372 34.5457C109.879 34.3279 110.624 33.9508 111.028 33.708C111.432 33.465 112.037 32.9927 112.373 32.6583C112.709 32.3239 113.179 31.754 113.417 31.3917C113.656 31.0295 113.986 30.4551 114.15 30.1152C114.314 29.7753 114.568 29.0685 114.715 28.5447C114.93 27.7755 114.991 27.2993 115.031 26.0721C115.067 24.9416 115.041 24.3664 114.926 23.827C114.841 23.4281 114.609 22.7495 114.41 22.3189C114.21 21.8884 113.853 21.2984 113.615 21.0079C113.378 20.7174 113.001 20.3395 112.778 20.1683C112.554 19.9969 112.12 19.7579 111.813 19.6369C111.502 19.5141 110.941 19.3988 110.545 19.3759C110.091 19.3498 109.667 19.3886 109.374 19.483ZM102.776 25.2869C102.774 25.3287 102.71 25.4453 102.634 25.5461C102.557 25.6471 101.373 26.181 100.003 26.7327C98.6331 27.2845 97.2012 27.8927 96.8214 28.0844C96.4414 28.276 96.0305 28.5401 95.9081 28.6713C95.7857 28.8026 95.564 29.1748 95.4155 29.4987C95.2551 29.8484 95.057 30.121 94.9274 30.1703C94.8074 30.2158 94.2524 30.3023 93.6942 30.3625C93.1361 30.4228 91.5374 30.5252 90.1417 30.5902C88.5019 30.6665 85.6288 30.688 82.0212 30.6511C78.9506 30.6197 75.7988 30.5454 75.0172 30.4858C74.2356 30.4263 73.2763 30.3302 72.8855 30.2723C72.4947 30.2143 72.1135 30.1059 72.0382 30.0312C71.9303 29.9241 71.9266 29.8484 72.021 29.6723C72.0869 29.5496 72.1256 29.4365 72.1071 29.4209C72.0886 29.4052 71.9087 29.3158 71.7073 29.2222C71.5059 29.1285 71.1905 28.9058 71.0065 28.7273C70.8223 28.5487 70.5832 28.204 70.4749 27.9612C70.3667 27.7185 70.3166 27.4847 70.3637 27.4418C70.4108 27.3989 70.852 27.4241 71.344 27.498C71.8361 27.5718 72.8638 27.6845 73.6279 27.7486C74.392 27.8126 76.994 27.8948 79.4101 27.9312C81.8262 27.9675 85.3434 27.9674 87.2261 27.9309C89.1089 27.8943 91.2431 27.8141 91.9688 27.7527C92.6946 27.6914 93.768 27.5688 94.3542 27.4804C94.9404 27.3919 95.8997 27.2132 96.4859 27.0833C97.0721 26.9534 98.077 26.6859 98.719 26.4888C99.3611 26.2917 100.503 25.9282 101.257 25.6811C102.01 25.4339 102.661 25.227 102.703 25.2213C102.745 25.2155 102.778 25.245 102.776 25.2869ZM98.0479 32.3049C97.9913 32.3613 97.5937 32.4746 97.1643 32.5566C96.7348 32.6387 95.687 32.7739 94.8359 32.8571C93.9848 32.9404 92.3977 33.059 91.309 33.1206C90.2204 33.1822 87.4568 33.2325 85.1679 33.2325C82.8789 33.2325 80.1154 33.1822 79.0267 33.1206C77.938 33.059 76.351 32.9404 75.4998 32.8571C74.6487 32.7739 73.601 32.6387 73.1715 32.5566C72.742 32.4746 72.3444 32.3613 72.2879 32.3049C72.2185 32.2357 76.4078 32.2024 85.1679 32.2024C93.9279 32.2024 98.1172 32.2357 98.0479 32.3049ZM57.7103 34.2944C57.7103 34.3313 57.8764 34.6621 58.0795 35.0298C58.2826 35.3974 58.6756 36.0771 58.9529 36.5403C59.2302 37.0036 59.441 37.398 59.4212 37.417C59.4014 37.4358 58.8598 37.5675 58.2178 37.7093C57.5758 37.8512 56.7574 37.9992 56.3992 38.0382L55.7479 38.1093L56.247 38.3635C56.5214 38.5034 57.4083 38.9122 58.2178 39.272C59.0273 39.6317 60.5418 40.2636 61.5834 40.6763C62.625 41.0889 64.2923 41.7133 65.2884 42.0638L67.0997 42.701V44.2095L67.9471 44.4931C68.4132 44.649 69.5779 44.9774 70.5356 45.2227C71.4931 45.4681 72.9617 45.8045 73.7991 45.9703C74.6365 46.1363 75.984 46.3663 76.7936 46.4816C77.6031 46.5969 78.9963 46.7612 79.8895 46.8465C80.7828 46.9318 82.5642 47.0292 83.8483 47.0628C85.2325 47.0992 86.9887 47.0757 88.1623 47.0053C89.251 46.9398 90.7584 46.8192 91.512 46.7372C92.2657 46.6551 93.4762 46.493 94.202 46.3769C94.9278 46.2609 96.1839 46.0328 96.9934 45.8701C97.8029 45.7073 99.0819 45.413 99.8356 45.2161C100.589 45.0192 101.647 44.723 102.185 44.5579C102.821 44.3632 103.188 44.1969 103.231 44.0841C103.268 43.9885 103.268 43.6346 103.232 43.2976L103.167 42.6848L103.912 42.4483C104.322 42.3183 105.639 41.8459 106.84 41.3985C108.04 40.9511 109.799 40.2546 110.748 39.8506C111.697 39.4468 112.953 38.8943 113.539 38.6231C114.347 38.2491 114.543 38.1226 114.351 38.0999C114.211 38.0833 113.688 38.0019 113.187 37.9188C112.687 37.8357 111.967 37.6974 111.588 37.6114C111.21 37.5254 110.9 37.4167 110.9 37.3699C110.9 37.3231 111.123 36.9255 111.396 36.4864C111.669 36.0474 112.056 35.3635 112.256 34.9666L112.62 34.2452L110.669 35.1894C109.595 35.7088 107.918 36.4519 106.941 36.8407C105.964 37.2294 104.776 37.6746 104.302 37.8298C103.827 37.985 103.407 38.1396 103.367 38.1731C103.327 38.2067 103.365 38.4387 103.452 38.6886C103.566 39.0141 103.599 39.4023 103.57 40.0551C103.54 40.7554 103.471 41.0963 103.274 41.5243L103.018 42.0816L102.783 41.3724C102.654 40.9823 102.458 40.4807 102.348 40.2578C102.238 40.0349 102.057 39.7542 101.947 39.6341L101.747 39.4157L101.07 39.6114C100.698 39.7191 99.6859 39.9852 98.8205 40.2029C97.9552 40.4205 96.5392 40.7374 95.6738 40.9073C94.8085 41.077 93.461 41.3064 92.6794 41.4169C91.8978 41.5275 90.8015 41.669 90.2432 41.7314C89.6849 41.7937 87.7893 41.8691 86.0307 41.8987C83.5401 41.9408 82.4069 41.9159 80.9046 41.7857C79.8438 41.6939 78.2349 41.5081 77.329 41.3731C76.4232 41.238 74.9843 40.985 74.1315 40.8108C73.2788 40.6367 71.9872 40.3398 71.2614 40.1512C70.5357 39.9625 69.6366 39.7195 69.2636 39.6114C68.7387 39.4592 68.5504 39.4413 68.4307 39.5323C68.3458 39.5969 68.1416 39.9234 67.9771 40.2578C67.8125 40.5921 67.5992 41.1365 67.5029 41.4674C67.3404 42.0262 67.3176 42.0551 67.1839 41.8727C67.1047 41.7647 66.9645 41.4255 66.8724 41.119C66.776 40.7984 66.7082 40.239 66.7129 39.8018C66.7174 39.3838 66.7918 38.8507 66.8784 38.6169L67.0359 38.192L66.6618 38.0726C66.456 38.0069 65.5619 37.6808 64.6749 37.3481C63.7879 37.0152 62.5029 36.4995 61.8195 36.202C61.1359 35.9044 59.9318 35.3384 59.1434 34.9442C58.3552 34.5501 57.7103 34.2576 57.7103 34.2944ZM94.6935 34.6401C94.6344 34.699 94.3398 34.8106 94.0388 34.8881C93.7377 34.9655 92.9661 35.0988 92.3241 35.1841C91.6821 35.2694 90.4944 35.3874 89.6849 35.4464C88.8754 35.5055 86.8427 35.5537 85.1679 35.5537C83.493 35.5537 81.4603 35.5055 80.6508 35.4464C79.8413 35.3874 78.6537 35.2694 78.0116 35.1841C77.3696 35.0988 76.5981 34.9655 76.297 34.8881C75.9959 34.8106 75.7013 34.699 75.6423 34.6401C75.5667 34.5647 78.3949 34.5328 85.1679 34.5328C91.9408 34.5328 94.769 34.5647 94.6935 34.6401ZM90.0048 37.0684C89.8735 37.1776 89.5309 37.3376 89.2435 37.424C88.9559 37.5104 88.2867 37.6473 87.7563 37.7283C87.2162 37.8106 86.0775 37.8754 85.1679 37.8754C84.2583 37.8754 83.1196 37.8106 82.5794 37.7283C82.0491 37.6473 81.3798 37.5104 81.0923 37.424C80.8048 37.3376 80.4622 37.1776 80.331 37.0684L80.0925 36.8701H90.2432L90.0048 37.0684ZM100.322 41.7777C100.205 42.1123 100.088 42.7613 100.062 43.2216C100.035 43.6814 99.9846 44.0581 99.9498 44.0589C99.9149 44.0596 99.7835 44.0878 99.658 44.1213C99.4418 44.1792 99.4297 44.1535 99.4312 43.6387C99.432 43.3396 99.4989 42.8213 99.5798 42.4869C99.6607 42.1526 99.7285 41.847 99.7304 41.8078C99.7325 41.7687 99.5171 41.8024 99.2519 41.8826C98.8141 42.0153 98.7581 42.013 98.6429 41.8585C98.5732 41.7649 98.516 41.6564 98.516 41.6174C98.516 41.5785 98.8928 41.4476 99.3534 41.3268C99.8141 41.2059 100.237 41.0926 100.292 41.0751C100.348 41.0574 100.425 41.0715 100.464 41.1064C100.502 41.1412 100.438 41.4433 100.322 41.7777ZM70.9502 41.2861C71.2888 41.3779 71.6004 41.483 71.6425 41.5195C71.6845 41.5561 71.659 41.6678 71.5856 41.7678C71.4731 41.9216 71.3953 41.9341 71.0842 41.8484L70.716 41.7469L70.513 42.3282L70.8699 42.395C71.0662 42.4318 71.251 42.5245 71.2804 42.601C71.3099 42.6776 71.3087 42.8057 71.278 42.8857C71.2331 43.0025 71.1485 43.0107 70.8471 42.9277C70.5565 42.8476 70.4527 42.8548 70.3861 42.9596C70.3388 43.034 70.2996 43.1748 70.2986 43.2726C70.2975 43.3981 70.4313 43.4861 70.754 43.5723C71.1452 43.6767 71.2019 43.7241 71.1474 43.9012C71.1125 44.015 71.0699 44.1241 71.0526 44.1435C71.0355 44.163 70.6986 44.0959 70.304 43.9945C69.8828 43.8862 69.5866 43.7561 69.5866 43.6796C69.5866 43.6079 69.7311 43.0025 69.9078 42.3341C70.0846 41.6659 70.2529 41.119 70.2819 41.119C70.3108 41.119 70.6116 41.1942 70.9502 41.2861ZM97.0316 42.0056C97.06 42.1031 97.1372 42.4664 97.2031 42.8128C97.3077 43.3623 97.3505 43.4399 97.5385 43.4208C97.6931 43.4051 97.7633 43.4633 97.7868 43.6269C97.8096 43.7857 97.7679 43.8548 97.6492 43.8548C97.5138 43.8548 97.4874 43.9286 97.5205 44.2125C97.5568 44.5225 97.5298 44.5785 97.3177 44.6316C97.163 44.6703 97.0404 44.6413 96.9841 44.5525C96.9351 44.4753 96.8943 44.3272 96.8934 44.2236C96.8921 44.061 96.8392 44.0445 96.5113 44.1038C96.3019 44.1417 96.032 44.1962 95.9114 44.2251C95.755 44.2625 95.6802 44.2242 95.6506 44.0915C95.6278 43.9892 95.8117 43.4951 96.0592 42.9936C96.3066 42.492 96.5551 42.0247 96.6115 41.955C96.6677 41.8854 96.7736 41.8283 96.8467 41.8283C96.9199 41.8283 97.0031 41.9082 97.0316 42.0056ZM74.1595 42.0843C74.3241 42.1693 74.4582 42.2946 74.4574 42.3629C74.4565 42.4311 74.4158 42.55 74.3669 42.6271C74.2923 42.7445 74.2396 42.7405 74.0413 42.6017C73.9112 42.5107 73.7221 42.4363 73.6211 42.4363C73.5201 42.4363 73.4095 42.509 73.3753 42.598C73.3338 42.7059 73.451 42.8857 73.7274 43.1379C73.9553 43.3458 74.1734 43.6418 74.212 43.7956C74.2628 43.9973 74.2263 44.15 74.0811 44.3441C73.9705 44.4921 73.7423 44.6526 73.574 44.7007C73.343 44.7669 73.1528 44.7374 72.7976 44.5805C72.5389 44.4663 72.3273 44.311 72.3273 44.2354C72.3273 44.1598 72.3757 44.0497 72.435 43.9905C72.5109 43.9147 72.6482 43.9367 72.9005 44.0651C73.0972 44.1652 73.3228 44.2224 73.4018 44.1922C73.4807 44.1619 73.5453 44.06 73.5453 43.9659C73.5453 43.8717 73.3626 43.6165 73.1393 43.3989C72.8315 43.0989 72.7333 42.9241 72.7333 42.6764C72.7333 42.4441 72.8106 42.289 73.0008 42.1397C73.1478 42.0242 73.4013 41.9296 73.5641 41.9296C73.7268 41.9296 73.9947 41.9993 74.1595 42.0843ZM76.286 42.439C76.6489 42.4953 77.074 42.5676 77.2308 42.5995C77.4513 42.6445 77.5087 42.707 77.4845 42.8762C77.4582 43.0607 77.3957 43.0904 77.0847 43.0666L76.716 43.0385L76.6475 43.5226C76.6098 43.789 76.5307 44.2954 76.4715 44.6481L76.3639 45.2894L76.0968 45.2225C75.9498 45.1858 75.8201 45.146 75.8083 45.1343C75.7967 45.1226 75.8534 44.7046 75.9346 44.2053C76.0158 43.706 76.0824 43.2198 76.0826 43.1248C76.0829 43.0076 75.969 42.9308 75.7277 42.8856C75.485 42.8402 75.3725 42.7638 75.3725 42.6445C75.3725 42.5485 75.4029 42.4396 75.4402 42.4025C75.4773 42.3653 75.5345 42.3353 75.567 42.3358C75.5996 42.3362 75.9231 42.3826 76.286 42.439ZM93.9538 42.642C94.0613 42.6993 94.2218 42.8865 94.3105 43.0577C94.3992 43.2291 94.4764 43.6039 94.482 43.8907C94.4883 44.2086 94.4231 44.5438 94.3151 44.7494C94.2084 44.9523 93.9947 45.1463 93.7789 45.2364C93.5816 45.3187 93.2762 45.3721 93.1005 45.3551C92.8589 45.3317 92.7809 45.2746 92.7809 45.1214C92.7809 44.9606 92.859 44.9123 93.1589 44.8875C93.4202 44.8659 93.6003 44.7756 93.7426 44.5951C93.8556 44.4517 93.9482 44.2958 93.9482 44.249C93.9482 44.2022 93.8311 44.2083 93.6878 44.2627C93.5446 44.317 93.3142 44.3615 93.1756 44.3615C93.0372 44.3615 92.8118 44.2495 92.6748 44.1127C92.4952 43.9336 92.4256 43.7534 92.4256 43.468C92.4256 43.1751 92.4953 43.0023 92.6932 42.8047C92.8915 42.6067 93.0641 42.5376 93.3597 42.5376C93.579 42.5376 93.8464 42.5845 93.9538 42.642ZM85.4566 43.129C85.5537 43.3987 85.6996 43.7139 85.7808 43.8296C85.8808 43.9721 86.1743 44.0979 86.6901 44.2193C87.109 44.3179 87.4518 44.4373 87.4518 44.4845C87.4518 44.5318 87.3947 44.5894 87.3249 44.6125C87.2552 44.6356 86.8751 44.7475 86.4804 44.8614L85.7628 45.0684L85.516 45.7029C85.3804 46.0518 85.2237 46.3321 85.1679 46.3256C85.112 46.3191 84.9547 46.0455 84.8182 45.7176C84.6817 45.3897 84.5582 45.1046 84.5439 45.084C84.5295 45.0635 84.1652 44.9489 83.7343 44.8294C83.3033 44.7098 82.9347 44.5642 82.9152 44.5059C82.8957 44.4473 83.2231 44.3187 83.6435 44.2198C84.1611 44.098 84.4549 43.9722 84.555 43.8296C84.6362 43.7139 84.782 43.3987 84.8792 43.129C84.9762 42.8595 85.1062 42.6389 85.1679 42.6389C85.2296 42.6389 85.3595 42.8595 85.4566 43.129ZM80.2923 43.1435C80.4763 43.2571 80.6838 43.4871 80.7534 43.6547C80.8252 43.8278 80.8573 44.1592 80.8276 44.4216C80.7914 44.7427 80.6887 44.974 80.4905 45.1804C80.3338 45.3437 80.0467 45.5212 79.8525 45.5747C79.6583 45.6282 79.2303 45.6439 78.9014 45.6096L78.3035 45.5472L78.3564 45.1823C78.3855 44.9816 78.4358 44.5211 78.4684 44.1588C78.501 43.7966 78.5512 43.3377 78.5799 43.1391L78.6321 42.7778L79.295 42.8575C79.6595 42.9014 80.1084 43.03 80.2923 43.1435ZM90.8353 43.2722C90.8663 43.4534 90.9193 43.9663 90.9531 44.4121C90.987 44.858 91.0361 45.3254 91.0623 45.4507C91.1032 45.6465 91.0675 45.6787 90.8096 45.6787C90.5325 45.6787 90.5053 45.6457 90.4561 45.2481C90.4267 45.0113 90.3746 44.5518 90.34 44.2271C90.2918 43.7727 90.2443 43.6503 90.1335 43.6952C90.0542 43.7273 89.9245 43.7799 89.845 43.8121C89.761 43.846 89.6546 43.7849 89.5908 43.666C89.4945 43.4863 89.5337 43.43 89.9129 43.2031C90.1504 43.0611 90.4424 42.9444 90.5618 42.9438C90.7278 42.9431 90.7922 43.0204 90.8353 43.2722ZM93.2227 43.0167C93.1308 43.0379 93.0348 43.1341 93.0095 43.2308C92.9842 43.3273 93.0009 43.5073 93.0465 43.6306C93.0922 43.7539 93.2137 43.8548 93.3165 43.8548C93.4193 43.8548 93.5862 43.7944 93.6874 43.7205C93.8162 43.6266 93.8505 43.5198 93.8015 43.3657C93.763 43.2446 93.6547 43.1078 93.5607 43.0619C93.4668 43.016 93.3147 42.9956 93.2227 43.0167ZM96.4621 43.283C96.3654 43.486 96.3197 43.6489 96.3606 43.6451C96.4016 43.6411 96.5051 43.607 96.5904 43.5691C96.6987 43.5211 96.7295 43.4112 96.6919 43.207L96.6381 42.9138L96.4621 43.283ZM79.0925 43.8802C79.0573 44.1728 79.028 44.5603 79.0276 44.7414L79.0267 45.0708H79.4253C79.7351 45.0708 79.8709 45.0113 80.0344 44.8038C80.1501 44.6569 80.2448 44.4311 80.2448 44.3019C80.2448 44.1727 80.1928 43.9531 80.1293 43.814C80.0657 43.6748 79.8762 43.5131 79.7081 43.4546C79.54 43.396 79.3471 43.3482 79.2795 43.3482C79.2069 43.3482 79.1302 43.5664 79.0925 43.8802Z" fill="white"/>
<path d="M8.5079 56.9174H0V71.6214H2.33179V64.9951H8.27682V63.3123H2.33179V58.6424H8.5079V56.9174Z" fill="white"/>
<path d="M18.9933 60.9984C18.9933 62.2184 18.3 63.5437 16.0523 63.5437H14.7288V58.5162H16.0523C18.111 58.5162 18.9723 59.5679 18.9933 60.9352V60.9984ZM22.0393 68.6343C20.9259 66.7832 20.0436 65.2896 18.6361 64.4903C20.1907 64.0065 21.3461 62.7233 21.3461 61.0194C21.3461 58.4741 19.4764 56.8964 16.5144 56.9174H12.418V71.6214H14.7288V65.1844H15.5271C16.7455 65.1844 17.5228 65.6052 19.4134 68.5922L21.3251 71.6214H23.8669L22.0393 68.6343Z" fill="white"/>
<path d="M30.2437 65.5L31.8823 61.4822C32.1974 60.7459 32.4075 60.0728 32.4915 59.7152C32.5755 60.0518 32.8276 60.7459 33.1637 61.5032L34.9493 65.5H30.2437ZM33.5209 56.9174H31.8823L25.6012 71.6214H27.6178L29.5085 67.1828H35.7056L37.6803 71.6214H40.0541L33.5209 56.9174Z" fill="white"/>
<path d="M51.1651 67.6877C51.1651 65.4369 49.7786 64.343 47.2997 62.9126C45.9763 62.1553 44.7999 61.4822 44.8209 60.2411V60.199C44.8209 59.0841 45.7032 58.432 47.1737 58.432C48.161 58.432 49.3584 58.6213 50.5138 59.6521V57.4854C49.4845 56.7912 48.2871 56.6019 47.1737 56.6019C44.4848 56.6019 42.6151 58.1375 42.6151 60.5145C42.6151 62.534 43.9176 63.6909 45.8082 64.7427C47.8249 65.8786 48.9803 66.5518 48.9593 68.0032V68.0874C48.9383 69.1812 48.098 70.0647 46.4595 70.0647C45.01 70.0647 43.8126 69.5599 42.6362 68.466V70.7799C43.6235 71.4531 44.8419 71.8738 46.5225 71.8738C47.6989 71.8738 48.7702 71.5793 49.5895 70.9693C50.5979 70.1909 51.123 69.1812 51.1651 67.877C51.1651 67.8139 51.1651 67.7508 51.1651 67.6877Z" fill="white"/>
<path d="M63.9735 69.8754H57.4403V64.9951H63.5744V63.3123H57.4403V58.6424H63.7845V56.9174H55.1085V71.6214H63.9735V69.8754Z" fill="white"/>
<path d="M74.4505 60.9984C74.4505 62.2184 73.7573 63.5437 71.5095 63.5437H70.1861V58.5162H71.5095C73.5682 58.5162 74.4295 59.5679 74.4505 60.9352V60.9984ZM77.4966 68.6343C76.3832 66.7832 75.5009 65.2896 74.0934 64.4903C75.6479 64.0065 76.8033 62.7233 76.8033 61.0194C76.8033 58.4741 74.9337 56.8964 71.9717 56.9174H67.8753V71.6214H70.1861V65.1844H70.9843C72.2027 65.1844 72.98 65.6052 74.8707 68.5922L76.7823 71.6214H79.3242L77.4966 68.6343Z" fill="white"/>
<path d="M98.4581 56.9174L94.6348 62.0501L90.8325 56.9174H88.0805L93.4164 64.0485V71.6214H95.7481V64.0485L101.105 56.9174H98.4581Z" fill="white"/>
<path d="M105.696 65.5L107.334 61.4822C107.649 60.7459 107.859 60.0728 107.943 59.7152C108.027 60.0518 108.279 60.7459 108.616 61.5032L110.401 65.5H105.696ZM108.973 56.9174H107.334L101.053 71.6214H103.07L104.96 67.1828H111.157L113.132 71.6214H115.506L108.973 56.9174Z" fill="white"/>
<path d="M130.534 68.5501C129.169 69.665 127.635 70.1909 125.723 70.1909C122.32 70.1909 120.009 67.5825 120.009 64.301C120.009 60.9984 122.32 58.411 125.723 58.411C127.635 58.411 129.169 58.9158 130.534 60.0307V57.7589C129.505 57.0857 127.971 56.6019 125.744 56.6019C120.997 56.6019 117.552 59.8624 117.552 64.301C117.552 68.7184 120.997 72 125.744 72C127.971 72 129.505 71.4951 130.534 70.822V68.5501Z" fill="white"/>
<path d="M146.733 56.9174H144.401V63.3123H136.482V56.9174H134.171V71.6214H136.482V64.9951H144.401V71.6214H146.733V56.9174Z" fill="white"/>
<path d="M161.809 56.8964H150.003V58.6424H154.751V71.6214H157.083V58.6424H161.809V56.8964Z" fill="white"/>
<path d="M173 67.6877C173 65.4369 171.614 64.343 169.135 62.9126C167.811 62.1553 166.635 61.4822 166.656 60.2411V60.199C166.656 59.0841 167.538 58.432 169.009 58.432C169.996 58.432 171.193 58.6213 172.349 59.6521V57.4854C171.319 56.7912 170.122 56.6019 169.009 56.6019C166.32 56.6019 164.45 58.1375 164.45 60.5145C164.45 62.534 165.753 63.6909 167.643 64.7427C169.66 65.8786 170.815 66.5518 170.794 68.0032V68.0874C170.773 69.1812 169.933 70.0647 168.294 70.0647C166.845 70.0647 165.647 69.5599 164.471 68.466V70.7799C165.458 71.4531 166.677 71.8738 168.357 71.8738C169.534 71.8738 170.605 71.5793 171.424 70.9693C172.433 70.1909 172.958 69.1812 173 67.877C173 67.8139 173 67.7508 173 67.6877Z" fill="white"/>
</svg>
