<svg width="573" height="457" viewBox="0 0 573 457" fill="none" xmlns="http://www.w3.org/2000/svg">
<path fill-rule="evenodd" clip-rule="evenodd" d="M211.14 12.2965C219.173 10.4862 231.35 8.47284 243.203 8.47284C246.878 8.47284 250.371 8.61231 253.654 8.88942C257.073 3.44582 261.446 0 267.388 0C279.84 0 285.975 14.9935 287.845 34.1405C289.715 14.993 295.852 0.000166232 308.305 0.000166232C314.247 0.000166232 318.621 3.44649 322.041 8.89108C325.324 8.61397 328.818 8.4745 332.493 8.4745C344.348 8.4745 356.527 10.4882 364.563 12.2988L364.578 12.3145C366.389 20.3493 368.403 32.5271 368.403 44.3811C368.403 48.0565 368.263 51.5493 367.986 54.8326C373.432 58.2518 376.878 62.6254 376.878 68.5677C376.878 81.0367 361.842 87.1723 342.654 89.0335C361.842 90.8936 376.878 97.0282 376.878 109.496C376.878 115.438 373.432 119.81 367.988 123.229C368.265 126.512 368.405 130.004 368.405 133.679C368.405 145.531 366.391 157.707 364.581 165.74L364.565 165.755C356.531 167.566 344.354 169.579 332.501 169.579C328.826 169.579 325.333 169.44 322.05 169.163C318.631 174.606 314.258 178.052 308.316 178.052C295.865 178.052 289.729 163.059 287.86 143.911C285.989 163.059 279.852 178.052 267.4 178.052C261.457 178.052 257.083 174.605 253.664 169.161C250.38 169.438 246.887 169.577 243.211 169.577C231.356 169.577 219.177 167.564 211.142 165.753L211.126 165.738C209.315 157.703 207.301 145.525 207.301 133.671C207.301 129.995 207.441 126.503 207.718 123.219C202.273 119.8 198.826 115.427 198.826 109.484C198.826 97.0153 213.862 90.8796 233.05 89.0185C213.863 87.1584 198.826 81.0237 198.826 68.5557C198.826 62.6144 202.272 58.2417 207.716 54.8229C207.439 51.5404 207.3 48.048 207.3 44.3733C207.3 32.5214 209.313 20.3455 211.124 12.3123L211.14 12.2965ZM286.352 44.1821C286.352 59.9854 283.602 70.7531 277.589 78.7557C269.586 84.7685 258.817 87.5181 243.012 87.5181C235.328 87.5181 228.952 86.7654 223.877 85.3749C238.063 73.0887 243.186 67.3784 247.605 48.7744C266.211 44.356 271.921 39.2336 284.209 25.0482C285.599 30.1235 286.352 36.499 286.352 44.1821ZM242.287 43.457C242.59 42.174 242.894 40.8837 243.204 39.5918C245.718 29.0239 248.386 18.4009 252.523 10.823C250.572 10.6791 248.487 10.6034 246.264 10.6034C234.925 10.6034 224.918 12.4862 217.293 18.4649C211.313 26.0898 209.431 36.0959 209.431 47.4338C209.431 49.6561 209.506 51.7407 209.65 53.6922C217.229 49.5555 227.853 46.8879 238.421 44.3734C239.714 44.0641 241.004 43.7595 242.287 43.457ZM248.902 37.0408C251.635 24.9993 254.818 10.9715 260.402 6.98506C273.114 -2.08987 281.22 13.1469 276.295 24.8784C271.37 36.6101 261.464 41.4777 247.348 43.7359C247.858 41.6374 248.372 39.3765 248.902 37.0408ZM235.869 50.0714C223.827 52.804 209.799 55.9873 205.812 61.5706C196.736 74.2815 211.974 82.3867 223.707 77.4621C235.439 72.5374 240.308 62.6319 242.566 48.5176C240.478 49.0254 238.23 49.5358 235.907 50.0627L235.869 50.0714ZM289.352 133.87C289.352 118.067 292.102 107.299 298.115 99.2963C306.119 93.2835 316.887 90.5339 332.692 90.5339C340.376 90.5339 346.752 91.2866 351.828 92.6771C337.641 104.963 332.518 110.674 328.099 129.278C309.494 133.696 303.783 138.818 291.496 153.004C290.105 147.928 289.352 141.553 289.352 133.87ZM337.283 133.679C335.991 133.988 334.7 134.292 333.417 134.595L332.687 137.679L332.501 138.46C329.986 149.028 327.318 159.651 323.181 167.229C325.133 167.373 327.217 167.448 329.44 167.448C340.779 167.448 350.786 165.566 358.412 159.587C364.391 151.962 366.274 141.956 366.274 130.618C366.274 128.396 366.198 126.311 366.054 124.36C358.476 128.496 347.852 131.164 337.283 133.679ZM326.802 141.011C324.07 153.053 320.886 167.08 315.302 171.067C302.59 180.142 294.484 164.905 299.409 153.174C304.334 141.442 314.241 136.574 328.356 134.316C327.846 136.415 327.333 138.675 326.802 141.011ZM339.835 127.981C351.878 125.248 365.906 122.065 369.892 116.481C378.968 103.77 363.73 95.6653 351.997 100.59C340.265 105.515 335.397 115.42 333.138 129.534C334.111 129.298 335.118 129.061 336.152 128.822C337.349 128.545 338.582 128.265 339.835 127.981ZM277.602 99.2825C283.617 107.287 286.367 118.056 286.367 133.862C286.367 141.547 285.614 147.923 284.223 152.999C271.934 138.812 266.222 133.688 247.613 129.269C243.194 110.662 238.07 104.95 223.881 92.6621C228.958 91.2714 235.335 90.5186 243.02 90.5186C258.827 90.5186 269.598 93.2687 277.602 99.2825ZM243.211 138.453C242.902 137.161 242.597 135.87 242.295 134.587C241.619 134.428 240.942 134.268 240.263 134.107C239.652 133.963 239.041 133.817 238.428 133.671C227.858 131.156 217.232 128.488 209.652 124.35C209.508 126.302 209.432 128.387 209.432 130.61C209.432 141.95 211.316 151.958 217.296 159.584C224.923 165.563 234.931 167.446 246.272 167.446C248.495 167.446 250.581 167.371 252.532 167.227C248.395 159.648 245.726 149.023 243.211 138.453ZM260.413 171.066C254.828 167.078 251.644 153.048 248.91 141.005L248.904 140.975L248.894 140.932C248.37 138.622 247.862 136.385 247.357 134.308C261.474 136.567 271.383 141.435 276.309 153.169C281.234 164.903 273.127 180.142 260.413 171.066ZM235.876 127.972C238.212 128.502 240.475 129.015 242.574 129.526C240.315 115.409 235.446 105.502 223.711 100.576C211.976 95.6508 196.736 103.757 205.813 116.471C209.801 122.055 223.832 125.239 235.876 127.972ZM289.337 44.1899C289.337 59.9959 292.088 70.7654 298.102 78.7695C306.106 84.7832 316.877 87.5334 332.684 87.5334C340.37 87.5334 346.747 86.7805 351.823 85.3898C337.634 73.1015 332.511 67.3902 328.091 48.7829C309.482 44.3638 303.77 39.2404 291.481 25.0526C290.09 30.1289 289.337 36.5054 289.337 44.1899ZM333.41 43.4647C333.107 42.1815 332.802 40.891 332.493 39.5988C329.978 29.0291 327.31 18.4042 323.172 10.825C325.124 10.6811 327.209 10.6054 329.432 10.6054C340.773 10.6054 350.782 12.4885 358.408 18.4682C364.389 26.0944 366.272 36.1022 366.272 47.4421C366.272 49.6649 366.196 51.7498 366.052 53.7017C358.472 49.5644 347.847 46.8962 337.276 44.3813C335.984 44.0719 334.693 43.7672 333.41 43.4647ZM326.794 37.0473C324.061 25.0038 320.876 10.9736 315.292 6.98656C302.577 -2.0902 294.47 13.1493 299.396 24.8829C304.322 36.6166 314.23 41.485 328.348 43.7438C327.84 41.6546 327.329 39.4043 326.801 37.0796L326.794 37.0473ZM339.829 50.0802C351.873 52.8134 365.904 55.9972 369.891 61.5814C378.969 74.2945 363.728 82.4011 351.993 77.4757C340.258 72.5502 335.39 62.6428 333.131 48.5262C335.229 49.0364 337.489 49.5493 339.824 50.0791L339.829 50.0802ZM287.575 120.545C290.267 94.1781 292.449 91.9956 318.817 89.3017C292.45 86.6107 290.267 84.4272 287.575 58.0605C284.882 84.426 282.7 86.6091 256.333 89.3017C282.699 91.9959 284.882 94.1778 287.575 120.545Z" fill="white"/>
<path d="M26.8791 329.919C38.1373 329.919 45.5959 322.851 45.5959 313.289C45.5959 308.161 43.7665 303.865 40.2483 300.4C37.1522 297.351 35.0413 295.273 26.4569 289.314C14.3543 280.999 11.6804 278.781 7.88078 273.931C4.36257 269.496 2.95529 265.477 2.95529 258.964C2.95529 245.105 14.7765 234.712 31.1009 234.712C39.9668 234.712 47.0032 236.652 54.1803 240.394C54.3211 244.135 54.4618 246.769 54.4618 249.956C54.4618 253.143 54.3211 256.054 54.1803 259.795L50.24 260.073C48.9734 255.222 47.5661 251.203 44.3294 247.461C40.5297 243.165 36.73 241.087 29.9751 241.087C19.9834 241.087 13.2284 247.184 13.2284 256.608C13.2284 260.904 14.2135 264.369 18.1539 268.388C20.8278 271.021 22.6572 272.545 31.6638 278.781C42.7814 286.403 46.1588 288.759 50.0992 293.194C54.0396 297.767 56.7134 304.419 56.7134 310.655C56.7134 326.177 44.3294 336.155 25.894 336.155C16.3245 336.155 9.56951 334.769 2.81456 331.582C1.26655 323.959 0.844369 317.03 0 309.131L4.36257 308.161C5.91058 312.596 7.17714 316.199 9.28806 319.663C13.3692 326.731 17.4503 329.919 26.8791 329.919Z" fill="#E8E4DF"/>
<path d="M77.3059 236.929H128.109C133.879 236.929 138.523 236.929 144.011 236.513C144.293 243.165 144.433 249.956 144.433 256.747L140.352 257.024C138.804 251.896 137.397 248.986 135.286 246.769C133.175 244.551 129.938 243.442 127.264 243.027C123.746 242.472 120.65 242.334 116.147 242.334C109.533 242.334 108.688 243.442 108.266 248.986C107.844 253.282 107.844 258.271 107.844 263.26V303.726C107.844 308.577 108.125 314.674 108.266 319.248C108.548 326.315 110.096 328.533 116.851 330.334L116.428 334.076C110.94 333.66 105.874 333.66 102.356 333.66C98.8373 333.66 93.4897 333.66 88.0013 334.076L87.5791 330.334C94.334 328.533 95.882 326.315 96.1635 319.248C96.3042 314.674 96.5857 308.577 96.5857 303.726V263.26C96.5857 258.271 96.5857 253.282 96.1635 248.986C95.7413 243.442 94.8969 242.334 88.2827 242.334C83.7794 242.334 80.8241 242.472 77.3059 243.027C74.6321 243.442 71.3953 244.551 69.2844 246.769C67.1735 248.986 65.6255 251.896 64.0775 257.024L59.9964 256.747C60.4186 249.956 60.8407 243.304 61.4036 236.513C66.892 236.929 71.5361 236.929 77.3059 236.929Z" fill="#E8E4DF"/>
<path d="M178.278 234.435H180.952L206.987 303.726C208.676 308.161 211.209 314.674 213.32 319.248C215.994 325.345 218.386 328.256 223.03 330.611L222.608 334.076C217.119 333.66 214.586 333.66 211.068 333.66C207.55 333.66 202.343 333.66 196.854 334.076L196.432 330.611C200.232 328.948 201.78 327.701 201.78 325.068C201.78 321.881 199.669 316.476 195.025 303.726L193.899 300.955H159.562L158.576 303.726C153.651 316.476 152.807 321.742 152.807 324.93C152.807 327.563 154.073 329.087 158.154 330.611L157.732 334.076C152.244 333.66 149.429 333.66 145.911 333.66C142.393 333.66 140.423 333.66 135.497 334.076L135.075 330.611C139.719 328.256 142.111 325.345 144.785 319.248C146.896 314.674 149.429 308.161 151.118 303.726L178.278 234.435ZM177.293 255.776L161.954 294.996H191.788L177.293 255.776Z" fill="#E8E4DF"/>
<path d="M320.964 248.847L283.389 336.155H280.434L242.719 251.896L240.889 303.865C240.748 307.052 240.608 311.071 240.608 314.813C240.608 322.019 240.889 328.533 248.489 330.75L248.066 334.215C243.704 333.937 239.904 333.799 236.527 333.799C233.149 333.799 229.772 333.799 225.409 334.215L224.987 330.75C230.757 328.394 232.023 325.9 232.586 319.386C233.008 314.813 233.008 308.715 233.29 303.865L234.979 266.863C235.119 263.676 235.119 261.597 235.119 258.964C235.119 251.203 234.979 242.611 226.394 239.978L226.816 236.513C234.697 236.929 240.467 236.929 248.77 236.929L284.233 317.307L317.586 236.929C325.326 236.929 334.051 236.929 339.54 236.513L339.962 239.978C334.192 242.195 333.066 245.105 332.644 251.342C332.503 254.668 332.362 258.964 332.362 262.844C332.362 264.369 332.644 265.616 333.348 303.865C333.488 308.715 333.488 314.813 333.911 319.386C333.911 325.9 335.459 328.394 341.228 330.75L340.806 334.215C335.318 333.799 331.8 333.799 328.281 333.799C324.763 333.799 320.964 333.799 315.475 334.215L315.053 330.75C322.23 328.948 322.371 321.742 322.371 315.09C322.371 311.626 322.371 307.329 322.23 303.865L320.964 248.847Z" fill="#E8E4DF"/>
<path d="M369.131 266.863V303.726C369.131 308.577 369.412 314.674 369.553 319.248C369.835 325.761 370.96 328.256 376.73 330.611L376.308 334.076C370.82 333.66 367.161 333.66 363.643 333.66C360.124 333.66 356.325 333.66 350.836 334.076L350.414 330.611C356.043 328.394 357.028 325.345 357.451 319.248C357.873 314.674 357.873 308.577 357.873 303.726V266.863C357.873 262.013 357.873 255.915 357.451 251.342C357.028 245.244 356.043 242.195 350.414 239.978L350.836 236.513C356.325 236.929 360.124 236.929 363.643 236.929C367.161 236.929 370.82 236.929 376.308 236.513L376.73 239.978C370.96 242.334 369.835 244.828 369.553 251.342C369.412 255.915 369.131 262.013 369.131 266.863Z" fill="#E8E4DF"/>
<path d="M474.706 335.046L471.328 336.155L401.949 253.698V303.865C401.949 308.715 401.949 314.813 402.371 319.386C402.934 325.9 404.201 328.394 409.971 330.75L409.549 334.215C405.186 333.937 401.386 333.799 398.15 333.799C394.772 333.799 391.395 333.799 387.032 334.215L386.61 330.75C392.38 328.394 393.506 325.9 394.068 319.386C394.491 314.813 394.491 308.715 394.491 303.865V266.863C394.491 262.013 394.491 256.747 394.068 252.173C393.506 245.66 391.676 242.334 385.906 239.978L386.328 236.513C390.691 236.79 396.179 236.929 402.794 236.929L466.684 312.457V266.863C466.684 262.013 466.684 255.915 466.262 251.342C465.699 244.828 464.433 242.334 458.663 239.978L459.085 236.513C463.447 236.79 467.247 236.929 470.484 236.929C473.861 236.929 477.239 236.929 481.601 236.513L482.024 239.978C476.254 242.334 475.128 244.828 474.565 251.342C474.143 255.915 474.143 262.013 474.143 266.863V312.318C474.143 318.97 474.284 327.84 474.706 335.046Z" fill="#E8E4DF"/>
<path d="M527.982 234.435H530.656L556.691 303.726C558.38 308.161 560.913 314.674 563.024 319.248C565.697 325.345 568.09 328.256 572.734 330.611L572.312 334.076C566.823 333.66 564.29 333.66 560.772 333.66C557.254 333.66 552.047 333.66 546.558 334.076L546.136 330.611C549.936 328.948 551.484 327.701 551.484 325.068C551.484 321.881 549.373 316.476 544.729 303.726L543.603 300.955H509.265L508.28 303.726C503.355 316.476 502.511 321.742 502.511 324.93C502.511 327.563 503.777 329.087 507.858 330.611L507.436 334.076C501.948 333.66 499.133 333.66 495.615 333.66C492.097 333.66 490.126 333.66 485.201 334.076L484.779 330.611C489.423 328.256 491.815 325.345 494.489 319.248C496.6 314.674 499.133 308.161 500.822 303.726L527.982 234.435ZM526.997 255.776L511.658 294.996H541.492L526.997 255.776Z" fill="#E8E4DF"/>
<path d="M230.653 407.664C227.839 407.664 226.15 406.001 225.306 402.813C224.602 400.042 223.617 398.933 221.225 398.933C214.751 398.933 206.87 409.188 202.93 421.661C200.538 429.144 199.975 434.41 199.975 438.984C199.975 445.774 203.071 447.992 206.589 447.992C212.077 447.992 216.721 444.111 224.884 433.718L227.839 435.519C221.225 448.685 212.077 457 204.056 457C196.597 457 190.968 451.456 190.968 441.755C190.968 417.642 209.685 391.588 225.446 391.588C231.498 391.588 236.001 396.023 236.001 401.843C236.001 405.031 233.749 407.664 230.653 407.664Z" fill="#E8E4DF"/>
<path d="M261.37 376.76L245.186 442.033C244.904 443.418 244.764 444.388 244.764 444.943C244.764 445.774 245.186 446.467 246.312 446.467C247.86 446.467 252.363 443.834 259.962 433.856L263.058 435.935C253.629 451.595 246.312 456.168 241.386 456.168C237.868 456.168 235.053 453.951 235.053 450.209C235.053 446.606 235.616 443.696 237.868 434.41L251.659 376.898C252.926 371.494 253.77 365.95 253.77 362.901C253.77 359.853 252.222 357.912 247.297 356.527L247.578 353.062C254.615 352.508 259.822 351.953 266.154 350.567L268.265 352.785C265.169 362.208 263.903 366.227 261.37 376.76Z" fill="#E8E4DF"/>
<path d="M304.416 428.174C292.032 451.595 285.558 456.168 278.663 456.168C272.752 456.168 269.093 451.318 269.093 446.329C269.093 443.003 270.36 438.707 272.893 432.193L281.336 410.574C282.884 406.555 283.588 404.338 283.588 402.675C283.588 401.428 283.025 400.319 281.759 400.319C279.366 400.319 276.833 403.091 270.36 410.99L267.545 408.634C275.426 396.993 280.774 391.588 286.543 391.588C289.921 391.588 292.876 394.637 292.876 399.072C292.876 402.259 292.173 405.031 288.654 414.177L280.211 436.351C278.803 439.954 278.381 441.755 278.381 443.696C278.381 445.913 279.507 447.299 282.181 447.299C287.247 447.299 299.631 436.212 313 398.795L314.97 393.251C315.815 392.835 316.941 392.558 318.066 392.558C320.177 392.558 322.429 393.806 323.696 396.3C319.615 407.387 318.067 410.99 315.533 419.582C311.312 433.995 310.045 440.092 309.764 442.587C309.623 443.973 309.623 445.081 309.623 445.774C309.623 446.467 310.186 447.299 311.03 447.299C312.578 447.299 315.111 445.913 322.429 436.489L325.384 438.707C316.941 452.149 311.312 456.168 306.386 456.168C302.446 456.168 300.475 453.396 300.475 449.377C300.475 446.19 300.475 442.31 304.416 428.174Z" fill="#E8E4DF"/>
<path d="M372.594 408.773C372.594 403.645 369.92 400.458 366.543 400.458C355.425 400.458 340.086 424.987 340.086 441.062C340.086 446.051 342.901 448.546 346.56 448.546C349.656 448.546 353.455 447.299 357.959 442.587C366.543 433.579 372.594 419.582 372.594 408.773ZM333.472 429.144L348.53 376.898C350.078 371.632 351.766 365.95 351.766 362.901C351.766 359.853 350.218 357.912 345.293 356.527L345.574 353.062C352.611 352.508 357.396 351.953 363.728 350.567L365.839 352.785C362.743 362.208 361.195 366.227 357.959 376.76L347.826 409.604C357.114 396.3 364.01 391.588 370.061 391.588C376.535 391.588 381.742 397.686 381.742 408.08C381.742 419.998 375.127 434.549 361.195 447.853C355.003 453.674 349.656 456.445 343.323 456.445C335.864 456.445 331.079 450.486 331.079 442.864C331.079 438.845 331.783 434.549 333.472 429.144Z" fill="#E8E4DF"/>
</svg>
