<svg width="125" height="45" viewBox="0 0 125 45" fill="none" xmlns="http://www.w3.org/2000/svg">
<path fill-rule="evenodd" clip-rule="evenodd" d="M16.0119 1.99546C7.87783 11.5504 0.0788388 23.3993 0.000634924 32.256C-0.0298234 35.5883 1.03375 38.4975 3.58484 40.7009C7.25631 43.8744 11.3015 44.9934 15.327 45C21.2095 45.0082 27.051 42.6343 31.6246 40.8039C39.3273 37.7226 124.473 0.737285 124.473 0.737285C125.295 0.325577 125.141 -0.187408 124.113 0.0686745C123.698 0.172425 31.418 25.187 31.418 25.187C29.6701 25.6814 27.8639 25.9401 26.0475 25.956C18.9556 25.998 12.645 22.0604 12.696 13.7629C12.7158 10.5162 13.7094 6.60083 16.0119 1.99546Z" fill="white"/>
</svg>
