<svg width="204" height="17" viewBox="0 0 204 17" fill="none" xmlns="http://www.w3.org/2000/svg">
<path d="M16.8668 6.12443L22.4335 0H16.125L11.6147 5.95533C11.1876 6.46689 10.3604 6.83776 9.7311 6.83776H8.67613V0H0V16.3967H8.64765V11.3664H10.0187C10.6465 11.3664 10.9598 11.5384 11.3029 12.165L13.7289 16.3967H24.1747L19.3227 8.17633C18.9226 7.49425 17.8377 6.92302 16.6973 6.92302C16.4126 6.92302 16.125 6.95286 16.8668 6.12443Z" fill="white"/>
<path d="M26.9695 16.3797H35.1345V6.86618H26.9695V16.3797Z" fill="white"/>
<path d="M31.1865 6.06475C33.4445 5.9056 35.2014 4.73329 35.1117 3.44588C35.0191 2.15989 33.1156 1.24336 30.859 1.40251C28.601 1.56166 26.8442 2.73397 26.9353 4.01853C27.0264 5.30594 28.9299 6.22106 31.1865 6.06475Z" fill="white"/>
<path d="M38.3293 6.80792H41.0699V3.61782H48.7751V6.80792H51.9728V9.94118H48.8904V11.8211C48.8904 13.7011 51.0587 13.586 52.0283 12.7348V15.4105C49.0613 16.7207 44.1808 17.0631 42.2118 15.7232C41.1838 15.0127 41.0699 14.4414 41.0699 13.586V9.99802H38.3293" fill="white"/>
<path d="M70.78 7.35074C66.5559 5.242 60.8041 5.61288 57.9666 7.1518C53.4136 9.61578 53.4833 13.6372 57.9082 15.9235C61.1045 17.5775 68.6957 17.12 70.7516 15.24V12.5927C67.7276 14.1302 65.6233 13.9071 64.3591 13.4752C62.3901 12.8045 62.3431 10.0307 64.8716 9.54331C66.4975 9.23069 68.5548 9.25911 70.78 10.4272" fill="white"/>
<path d="M73.5207 1.36983V16.3811H81.1974V11.7643C81.3113 8.8584 84.966 9.39979 84.966 11.5384V16.3811H92.6127V10.457C92.6127 7.66335 87.5913 4.53009 81.2557 7.71877L81.3682 1.36983" fill="white"/>
<path d="M117.328 6.83776V16.3797H125.549V11.2528C125.549 9.48505 129.258 8.63246 129.258 11.3096V16.3228H136.509V10.5124C136.509 7.78698 132.609 4.26863 125.549 7.89213V6.83776" fill="white"/>
<path d="M165.763 16.3697H173.925V6.85766H165.763V16.3697Z" fill="white"/>
<path d="M169.982 6.0548C172.238 5.89707 173.994 4.72618 173.904 3.43593C173.814 2.14994 171.909 1.23483 169.651 1.39398C167.395 1.55171 165.639 2.72402 165.731 4.01001C165.819 5.29884 167.722 6.21395 169.982 6.0548Z" fill="white"/>
<path fill-rule="evenodd" clip-rule="evenodd" d="M200.323 4.145V3.07216H201.04C201.405 3.07216 201.795 3.15316 201.795 3.58087C201.795 4.11232 201.397 4.145 200.953 4.145H200.323ZM200.96 7.3621C202.599 7.3621 204 6.09032 204 4.35247C204 2.62882 202.599 1.35704 200.96 1.35704C199.303 1.35704 197.905 2.62882 197.905 4.35247C197.905 6.09032 199.303 7.3621 200.96 7.3621ZM198.509 4.35247C198.509 2.93006 199.584 1.85722 200.96 1.85722C202.321 1.85722 203.396 2.93006 203.396 4.35247C203.396 5.7976 202.321 6.86192 200.96 6.86192C199.584 6.86192 198.509 5.7976 198.509 4.35247ZM200.323 4.58977H200.928L201.844 6.09033H202.432L201.444 4.56703C201.954 4.50309 202.344 4.23168 202.344 3.61356C202.344 2.93006 201.94 2.62882 201.118 2.62882H199.799V6.09033H200.323" fill="white"/>
<path fill-rule="evenodd" clip-rule="evenodd" d="M104.125 10.2879H107.18C107.23 9.31879 106.406 8.83424 105.532 8.83424C104.801 8.83424 104.125 9.46231 104.125 10.2879ZM114.534 12.7348C109.34 12.3355 103.802 12.6766 103.802 12.6766C105.399 15.2969 111.908 14.899 114.075 13.1895L113.847 15.4105C109.509 17.9754 96.2674 17.8617 96.0382 11.8794C95.836 6.59762 103.688 5.84023 105.399 5.84023C109.451 5.84023 115.388 7.72019 114.534 12.7348Z" fill="white"/>
<path fill-rule="evenodd" clip-rule="evenodd" d="M146.042 9.82893L148.438 5.3841L150.379 9.82893H146.042ZM138.307 16.3384H142.759L144.672 12.678H151.636L153.293 16.3384H163.85L155.631 0.0312616H145.126C146.156 0.430557 146.441 1.11263 146.156 1.68102" fill="white"/>
<path fill-rule="evenodd" clip-rule="evenodd" d="M188.556 10.3106C187.182 9.29322 184.544 9.54757 184.544 11.176C184.544 13.515 187.677 13.1071 188.556 12.3952V10.3106ZM196.273 1.3954V16.3228H188.568V15.2969C184.744 18.2596 176.179 16.6638 176.179 11.8794C176.179 6.00933 185.483 5.21358 188.622 7.26406V1.3954" fill="white"/>
</svg>
