<svg width="165" height="34" viewBox="0 0 165 34" fill="none" xmlns="http://www.w3.org/2000/svg">
<path d="M0 0.735137V33.4487H11.2751C16.3019 33.4487 20.2952 32.0243 23.3019 29.0838C26.2146 26.1892 27.671 22.1919 27.671 17.0919C27.671 11.9459 26.2146 7.94865 23.3019 5.05405C20.3422 2.20541 16.3489 0.735137 11.2751 0.735137H0ZM3.94628 29.9568V4.22703H11.2751C15.2214 4.22703 18.2281 5.37568 20.3422 7.62703C22.4562 9.92432 23.5368 13.0486 23.5368 17.0919C23.5368 21.1351 22.4562 24.3054 20.3422 26.5568C18.2281 28.8541 15.2214 29.9568 11.2751 29.9568H3.94628Z" fill="white"/>
<path d="M49.5323 30.6C51.6933 28.3946 52.8208 25.3622 52.8208 21.5946C52.8208 17.827 51.6933 14.8405 49.5323 12.5892C47.2772 10.3378 44.4585 9.18919 41.0759 9.18919C37.6464 9.18919 34.8277 10.3378 32.6196 12.5892C30.4116 14.8405 29.331 17.827 29.331 21.5946C29.331 25.3622 30.4116 28.3946 32.6196 30.6C34.8277 32.8973 37.6464 34 41.0759 34C44.4585 34 47.2772 32.8973 49.5323 30.6ZM35.3914 28.2568C33.982 26.6946 33.2773 24.4432 33.2773 21.5946C33.2773 18.7459 33.982 16.4946 35.3914 14.8865C36.8008 13.3243 38.68 12.4973 41.0759 12.4973C43.4249 12.4973 45.3511 13.3243 46.7605 14.8865C48.1699 16.4946 48.8745 18.7459 48.8745 21.5946C48.8745 24.4432 48.1699 26.6946 46.7605 28.2568C45.3511 29.9108 43.4249 30.6919 41.0759 30.6919C38.68 30.6919 36.8008 29.9108 35.3914 28.2568Z" fill="white"/>
<path d="M66.6005 9.18919C63.3589 9.18919 60.822 10.5676 58.9898 13.2784V9.74054H55.4194V33.4487H59.1778V20.0324C59.1778 17.5973 59.8355 15.7135 61.1979 14.427C62.5133 13.1405 64.0636 12.4973 65.8488 12.4973C69.5133 12.4973 71.3924 14.2892 71.3924 17.7811V33.4487H75.1508V17.4135C75.1508 14.8405 74.3991 12.8189 72.8958 11.3486C71.3925 9.92432 69.2784 9.18919 66.6005 9.18919Z" fill="white"/>
<path d="M87.1435 30.2324C85.2643 30.2324 83.526 30.2784 81.9757 30.3243C82.0697 30.1865 82.4925 29.6811 83.2442 28.7622C83.9488 27.8892 84.5596 27.1081 85.1233 26.4649L96.2105 12.4973V9.74054H77.7475V12.9568H86.3448C88.224 12.9568 89.9152 12.9568 91.5126 12.8649C91.3716 13.0486 90.9488 13.5541 90.2441 14.427C89.4924 15.3459 88.8817 16.0811 88.3649 16.7243L77.2777 30.6919V33.4487H96.8682V30.2324H87.1435Z" fill="white"/>
<path d="M118.726 21.5946C118.726 18.0568 117.74 15.1162 115.767 12.727C113.793 10.3838 111.069 9.18919 107.592 9.18919C104.21 9.18919 101.532 10.3378 99.5116 12.5892C97.4445 14.8865 96.4109 17.873 96.4109 21.5946C96.4109 25.4081 97.4445 28.4405 99.5586 30.6459C101.626 32.8973 104.303 34 107.686 34C110.411 34 112.666 33.3108 114.451 31.9324C116.236 30.5541 117.458 28.6243 118.116 26.2351H114.216C113.277 29.1757 111.116 30.6459 107.78 30.6459C105.525 30.6459 103.787 30.0027 102.518 28.7162C101.203 27.4297 100.498 25.4541 100.31 22.8811H118.726V21.5946ZM107.592 12.5432C109.612 12.5432 111.256 13.2324 112.525 14.5189C113.746 15.8054 114.498 17.5054 114.686 19.573H100.404C100.686 17.3216 101.485 15.5757 102.753 14.3811C103.975 13.1865 105.619 12.5432 107.592 12.5432Z" fill="white"/>
<path d="M125.065 33.4487V0.735137H121.306V33.4487H125.065Z" fill="white"/>
<path d="M132.591 33.4487V0.735137H128.832V33.4487H132.591Z" fill="white"/>
<path d="M140.211 6.15676V1.65405H136.217V6.15676H140.211ZM140.117 33.4487V9.74054H136.358V33.4487H140.117Z" fill="white"/>
<path d="M145.363 3.17027C143.108 5.28378 142.027 7.85676 142.027 10.8892C142.027 13.9216 143.108 16.4946 145.363 18.6081C147.571 20.7216 150.295 21.7784 153.537 21.7784C156.732 21.7784 159.456 20.7216 161.711 18.6081C163.873 16.4946 165 13.9216 165 10.8892C165 7.85676 163.873 5.28378 161.711 3.17027C159.456 1.05676 156.732 0 153.537 0C150.295 0 147.571 1.05676 145.363 3.17027ZM153.537 19.6189C150.906 19.6189 148.698 18.7919 147.007 17.0919C145.222 15.3919 144.376 13.3243 144.376 10.8892C144.376 8.45405 145.222 6.38649 147.007 4.64054C148.698 2.98649 150.906 2.11351 153.537 2.11351C156.121 2.11351 158.282 2.98649 160.02 4.64054C161.758 6.38649 162.651 8.45405 162.651 10.8892C162.651 13.3243 161.758 15.3919 160.02 17.0919C158.282 18.7919 156.121 19.6189 153.537 19.6189ZM158 13.0946C157.906 11.9919 157.436 11.2568 156.591 10.9351C157.718 10.4757 158.329 9.55676 158.329 8.17838C158.329 7.16757 157.953 6.34054 157.201 5.78919C156.45 5.23784 155.463 4.91622 154.148 4.91622H149.074V16.5865H151.141V11.9H154.383C154.946 11.9 155.322 12.0378 155.557 12.2676C155.792 12.5432 155.933 12.9568 156.027 13.6L156.121 14.7946C156.121 15.6216 156.309 16.2189 156.591 16.5865H158.705C158.329 16.0811 158.141 15.4838 158.141 14.7946L158 13.0946ZM151.141 10.0622V6.75406H154.148C155.51 6.75406 156.215 7.30541 156.215 8.40811C156.215 9.51081 155.557 10.0622 154.336 10.0622H151.141Z" fill="white"/>
</svg>
